M48
; DRILL file {KiCad (7.0.0-0)} date Friday, 02 February 2024 at 16:24:04
; FORMAT={-:-/ absolute / metric / decimal}
; #@! TF.CreationDate,2024-02-02T16:24:04+09:00
; #@! TF.GenerationSoftware,Kicad,Pcbnew,(7.0.0-0)
; #@! TF.FileFunction,Plated,1,2,PTH
FMAT,2
METRIC
; #@! TA.AperFunction,Plated,PTH,ViaDrill
T1C0.300
; #@! TA.AperFunction,Plated,PTH,ComponentDrill
T2C0.800
; #@! TA.AperFunction,Plated,PTH,ComponentDrill
T3C0.900
; #@! TA.AperFunction,Plated,PTH,ComponentDrill
T4C1.001
%
G90
G05
T1
X101.38Y-135.5
X101.54Y-120.62
X103.513Y-126.679
X103.815Y-123.141
X103.953Y-137.874
X104.033Y-116.819
X104.903Y-131.029
X106.863Y-135.079
X107.873Y-126.739
X109.403Y-119.84
X109.403Y-135.079
X110.927Y-126.444
X111.873Y-116.939
X111.943Y-119.84
X111.943Y-135.079
X111.953Y-137.95
X112.073Y-131.739
X112.705Y-125.427
X114.483Y-119.84
X114.483Y-135.079
X115.373Y-128.139
X117.023Y-119.84
X119.473Y-121.939
X119.553Y-137.909
X119.563Y-116.869
X119.563Y-135.079
X119.66Y-119.85
X119.69Y-131.904
X120.773Y-126.439
X122.103Y-135.079
X122.19Y-119.88
X123.881Y-131.778
X124.643Y-119.84
X125.278Y-131.523
X125.873Y-124.739
X126.353Y-127.999
X127.183Y-119.84
X127.183Y-131.778
X127.183Y-135.079
X127.193Y-137.829
X127.263Y-116.869
X129.723Y-119.84
X129.723Y-131.778
X129.723Y-135.079
X131.12Y-128.73
X132.009Y-119.84
X132.263Y-126.316
X132.263Y-135.079
X135.311Y-137.619
X136.073Y-117.579
X136.253Y-128.85
X136.773Y-126.269
X138.633Y-124.309
X140.843Y-117.529
X140.853Y-127.789
X140.933Y-135.799
T2
X105.593Y-117.934
X105.593Y-121.619
X105.593Y-133.174
X105.593Y-136.859
X108.133Y-117.934
X108.133Y-121.619
X108.133Y-133.174
X108.133Y-136.859
X110.673Y-117.934
X110.673Y-121.619
X110.673Y-133.174
X110.673Y-136.859
X113.213Y-117.934
X113.213Y-121.619
X113.213Y-133.174
X113.213Y-136.859
X115.753Y-117.934
X115.753Y-121.619
X115.753Y-133.174
X115.753Y-136.859
X118.293Y-117.934
X118.293Y-121.619
X118.293Y-133.174
X118.293Y-136.859
X120.833Y-117.934
X120.833Y-121.619
X120.833Y-133.174
X120.833Y-136.859
X123.373Y-117.934
X123.373Y-121.619
X123.373Y-133.174
X123.373Y-136.859
X125.913Y-117.934
X125.913Y-121.619
X125.913Y-133.174
X125.913Y-136.859
X128.453Y-117.934
X128.453Y-121.619
X128.453Y-133.174
X128.453Y-136.859
X130.993Y-117.934
X130.993Y-121.619
X130.993Y-133.174
X130.993Y-136.859
X133.533Y-117.934
X133.533Y-121.619
X133.533Y-133.174
X133.533Y-136.859
T3
X136.835Y-119.585
X136.835Y-122.085
X136.835Y-124.585
X140.135Y-119.585
X140.135Y-122.085
X140.135Y-124.585
T4
X138.653Y-133.302
X138.653Y-135.841
T0
M30
