%TF.GenerationSoftware,KiCad,Pcbnew,(7.0.0-0)*%
%TF.CreationDate,2024-02-02T16:24:01+09:00*%
%TF.ProjectId,A2Dead-Test-Switcher_V1.2_OS.kicad_X8_pcb,41324465-6164-42d5-9465-73742d537769,rev?*%
%TF.SameCoordinates,Original*%
%TF.FileFunction,Copper,L2,Bot*%
%TF.FilePolarity,Positive*%
%FSLAX46Y46*%
G04 Gerber Fmt 4.6, Leading zero omitted, Abs format (unit mm)*
G04 Created by KiCad (PCBNEW (7.0.0-0)) date 2024-02-02 16:24:01*
%MOMM*%
%LPD*%
G01*
G04 APERTURE LIST*
%ADD10C,0.100000*%
%TA.AperFunction,NonConductor*%
%ADD11C,0.100000*%
%TD*%
%TA.AperFunction,ComponentPad*%
%ADD12R,1.600000X1.600000*%
%TD*%
%TA.AperFunction,ComponentPad*%
%ADD13O,1.600000X1.600000*%
%TD*%
%TA.AperFunction,ComponentPad*%
%ADD14R,1.400000X1.400000*%
%TD*%
%TA.AperFunction,ComponentPad*%
%ADD15C,1.400000*%
%TD*%
%TA.AperFunction,ComponentPad*%
%ADD16R,2.000000X2.000000*%
%TD*%
%TA.AperFunction,ComponentPad*%
%ADD17C,2.000000*%
%TD*%
%TA.AperFunction,ViaPad*%
%ADD18C,0.600000*%
%TD*%
%TA.AperFunction,Conductor*%
%ADD19C,0.600000*%
%TD*%
%TA.AperFunction,Conductor*%
%ADD20C,0.400000*%
%TD*%
%TA.AperFunction,Conductor*%
%ADD21C,0.350000*%
%TD*%
G04 APERTURE END LIST*
D10*
D11*
X101504095Y-134209523D02*
X102304095Y-134209523D01*
X102304095Y-134209523D02*
X101504095Y-133752380D01*
X101504095Y-133752380D02*
X102304095Y-133752380D01*
X102304095Y-133219047D02*
X102304095Y-133066666D01*
X102304095Y-133066666D02*
X102266000Y-132990476D01*
X102266000Y-132990476D02*
X102189809Y-132914285D01*
X102189809Y-132914285D02*
X102037428Y-132876190D01*
X102037428Y-132876190D02*
X101770761Y-132876190D01*
X101770761Y-132876190D02*
X101618380Y-132914285D01*
X101618380Y-132914285D02*
X101542190Y-132990476D01*
X101542190Y-132990476D02*
X101504095Y-133066666D01*
X101504095Y-133066666D02*
X101504095Y-133219047D01*
X101504095Y-133219047D02*
X101542190Y-133295238D01*
X101542190Y-133295238D02*
X101618380Y-133371428D01*
X101618380Y-133371428D02*
X101770761Y-133409524D01*
X101770761Y-133409524D02*
X102037428Y-133409524D01*
X102037428Y-133409524D02*
X102189809Y-133371428D01*
X102189809Y-133371428D02*
X102266000Y-133295238D01*
X102266000Y-133295238D02*
X102304095Y-133219047D01*
X101580285Y-131596190D02*
X101542190Y-131634286D01*
X101542190Y-131634286D02*
X101504095Y-131748571D01*
X101504095Y-131748571D02*
X101504095Y-131824762D01*
X101504095Y-131824762D02*
X101542190Y-131939048D01*
X101542190Y-131939048D02*
X101618380Y-132015238D01*
X101618380Y-132015238D02*
X101694571Y-132053333D01*
X101694571Y-132053333D02*
X101846952Y-132091429D01*
X101846952Y-132091429D02*
X101961238Y-132091429D01*
X101961238Y-132091429D02*
X102113619Y-132053333D01*
X102113619Y-132053333D02*
X102189809Y-132015238D01*
X102189809Y-132015238D02*
X102266000Y-131939048D01*
X102266000Y-131939048D02*
X102304095Y-131824762D01*
X102304095Y-131824762D02*
X102304095Y-131748571D01*
X102304095Y-131748571D02*
X102266000Y-131634286D01*
X102266000Y-131634286D02*
X102227904Y-131596190D01*
X102304095Y-131100952D02*
X102304095Y-130948571D01*
X102304095Y-130948571D02*
X102266000Y-130872381D01*
X102266000Y-130872381D02*
X102189809Y-130796190D01*
X102189809Y-130796190D02*
X102037428Y-130758095D01*
X102037428Y-130758095D02*
X101770761Y-130758095D01*
X101770761Y-130758095D02*
X101618380Y-130796190D01*
X101618380Y-130796190D02*
X101542190Y-130872381D01*
X101542190Y-130872381D02*
X101504095Y-130948571D01*
X101504095Y-130948571D02*
X101504095Y-131100952D01*
X101504095Y-131100952D02*
X101542190Y-131177143D01*
X101542190Y-131177143D02*
X101618380Y-131253333D01*
X101618380Y-131253333D02*
X101770761Y-131291429D01*
X101770761Y-131291429D02*
X102037428Y-131291429D01*
X102037428Y-131291429D02*
X102189809Y-131253333D01*
X102189809Y-131253333D02*
X102266000Y-131177143D01*
X102266000Y-131177143D02*
X102304095Y-131100952D01*
X101504095Y-130415238D02*
X102304095Y-130415238D01*
X102304095Y-130415238D02*
X101732666Y-130148572D01*
X101732666Y-130148572D02*
X102304095Y-129881905D01*
X102304095Y-129881905D02*
X101504095Y-129881905D01*
X101504095Y-129500952D02*
X102304095Y-129500952D01*
X102304095Y-129500952D02*
X101732666Y-129234286D01*
X101732666Y-129234286D02*
X102304095Y-128967619D01*
X102304095Y-128967619D02*
X101504095Y-128967619D01*
X101923142Y-128586666D02*
X101923142Y-128320000D01*
X101504095Y-128205714D02*
X101504095Y-128586666D01*
X101504095Y-128586666D02*
X102304095Y-128586666D01*
X102304095Y-128586666D02*
X102304095Y-128205714D01*
X101504095Y-127405713D02*
X101885047Y-127672380D01*
X101504095Y-127862856D02*
X102304095Y-127862856D01*
X102304095Y-127862856D02*
X102304095Y-127558094D01*
X102304095Y-127558094D02*
X102266000Y-127481904D01*
X102266000Y-127481904D02*
X102227904Y-127443809D01*
X102227904Y-127443809D02*
X102151714Y-127405713D01*
X102151714Y-127405713D02*
X102037428Y-127405713D01*
X102037428Y-127405713D02*
X101961238Y-127443809D01*
X101961238Y-127443809D02*
X101923142Y-127481904D01*
X101923142Y-127481904D02*
X101885047Y-127558094D01*
X101885047Y-127558094D02*
X101885047Y-127862856D01*
X101580285Y-126605713D02*
X101542190Y-126643809D01*
X101542190Y-126643809D02*
X101504095Y-126758094D01*
X101504095Y-126758094D02*
X101504095Y-126834285D01*
X101504095Y-126834285D02*
X101542190Y-126948571D01*
X101542190Y-126948571D02*
X101618380Y-127024761D01*
X101618380Y-127024761D02*
X101694571Y-127062856D01*
X101694571Y-127062856D02*
X101846952Y-127100952D01*
X101846952Y-127100952D02*
X101961238Y-127100952D01*
X101961238Y-127100952D02*
X102113619Y-127062856D01*
X102113619Y-127062856D02*
X102189809Y-127024761D01*
X102189809Y-127024761D02*
X102266000Y-126948571D01*
X102266000Y-126948571D02*
X102304095Y-126834285D01*
X102304095Y-126834285D02*
X102304095Y-126758094D01*
X102304095Y-126758094D02*
X102266000Y-126643809D01*
X102266000Y-126643809D02*
X102227904Y-126605713D01*
X101504095Y-126262856D02*
X102304095Y-126262856D01*
X101732666Y-125920000D02*
X101732666Y-125539047D01*
X101504095Y-125996190D02*
X102304095Y-125729523D01*
X102304095Y-125729523D02*
X101504095Y-125462857D01*
X101504095Y-124815238D02*
X101504095Y-125196190D01*
X101504095Y-125196190D02*
X102304095Y-125196190D01*
X102304095Y-124068571D02*
X101656476Y-124068571D01*
X101656476Y-124068571D02*
X101580285Y-124030476D01*
X101580285Y-124030476D02*
X101542190Y-123992381D01*
X101542190Y-123992381D02*
X101504095Y-123916190D01*
X101504095Y-123916190D02*
X101504095Y-123763809D01*
X101504095Y-123763809D02*
X101542190Y-123687619D01*
X101542190Y-123687619D02*
X101580285Y-123649524D01*
X101580285Y-123649524D02*
X101656476Y-123611428D01*
X101656476Y-123611428D02*
X102304095Y-123611428D01*
X101542190Y-123268572D02*
X101504095Y-123154286D01*
X101504095Y-123154286D02*
X101504095Y-122963810D01*
X101504095Y-122963810D02*
X101542190Y-122887619D01*
X101542190Y-122887619D02*
X101580285Y-122849524D01*
X101580285Y-122849524D02*
X101656476Y-122811429D01*
X101656476Y-122811429D02*
X101732666Y-122811429D01*
X101732666Y-122811429D02*
X101808857Y-122849524D01*
X101808857Y-122849524D02*
X101846952Y-122887619D01*
X101846952Y-122887619D02*
X101885047Y-122963810D01*
X101885047Y-122963810D02*
X101923142Y-123116191D01*
X101923142Y-123116191D02*
X101961238Y-123192381D01*
X101961238Y-123192381D02*
X101999333Y-123230476D01*
X101999333Y-123230476D02*
X102075523Y-123268572D01*
X102075523Y-123268572D02*
X102151714Y-123268572D01*
X102151714Y-123268572D02*
X102227904Y-123230476D01*
X102227904Y-123230476D02*
X102266000Y-123192381D01*
X102266000Y-123192381D02*
X102304095Y-123116191D01*
X102304095Y-123116191D02*
X102304095Y-122925714D01*
X102304095Y-122925714D02*
X102266000Y-122811429D01*
X101923142Y-122468571D02*
X101923142Y-122201905D01*
X101504095Y-122087619D02*
X101504095Y-122468571D01*
X101504095Y-122468571D02*
X102304095Y-122468571D01*
X102304095Y-122468571D02*
X102304095Y-122087619D01*
D12*
%TO.P,U2,1*%
%TO.N,A7*%
X133532699Y-121619499D03*
D13*
%TO.P,U2,2*%
%TO.N,A6*%
X130992699Y-121619499D03*
%TO.P,U2,3*%
%TO.N,A5*%
X128452699Y-121619499D03*
%TO.P,U2,4*%
%TO.N,A4*%
X125912699Y-121619499D03*
%TO.P,U2,5*%
%TO.N,A3*%
X123372699Y-121619499D03*
%TO.P,U2,6*%
%TO.N,A2*%
X120832699Y-121619499D03*
%TO.P,U2,7*%
%TO.N,A1*%
X118292699Y-121619499D03*
%TO.P,U2,8*%
%TO.N,A0*%
X115752699Y-121619499D03*
%TO.P,U2,9*%
%TO.N,D0*%
X113212699Y-121619499D03*
%TO.P,U2,10*%
%TO.N,D1*%
X110672699Y-121619499D03*
%TO.P,U2,11*%
%TO.N,D2*%
X108132699Y-121619499D03*
%TO.P,U2,12*%
%TO.N,GND*%
X105592699Y-121619499D03*
%TO.P,U2,13*%
%TO.N,D3*%
X105592699Y-136859499D03*
%TO.P,U2,14*%
%TO.N,D4*%
X108132699Y-136859499D03*
%TO.P,U2,15*%
%TO.N,D5*%
X110672699Y-136859499D03*
%TO.P,U2,16*%
%TO.N,D6*%
X113212699Y-136859499D03*
%TO.P,U2,17*%
%TO.N,D7*%
X115752699Y-136859499D03*
%TO.P,U2,18*%
%TO.N,EP*%
X118292699Y-136859499D03*
%TO.P,U2,19*%
%TO.N,A10*%
X120832699Y-136859499D03*
%TO.P,U2,20*%
%TO.N,OE*%
X123372699Y-136859499D03*
%TO.P,U2,21*%
%TO.N,A11*%
X125912699Y-136859499D03*
%TO.P,U2,22*%
%TO.N,A9*%
X128452699Y-136859499D03*
%TO.P,U2,23*%
%TO.N,A8*%
X130992699Y-136859499D03*
%TO.P,U2,24*%
%TO.N,VCC*%
X133532699Y-136859499D03*
%TD*%
D14*
%TO.P,SW1,1*%
%TO.N,/~VCC*%
X136834699Y-124585499D03*
D15*
%TO.P,SW1,2*%
%TO.N,VCC*%
X136834700Y-122085500D03*
%TO.P,SW1,3*%
%TO.N,N/C*%
X136834700Y-119585500D03*
%TO.P,SW1,4*%
%TO.N,A11_PU*%
X140134700Y-124585500D03*
%TO.P,SW1,5*%
%TO.N,A11*%
X140134700Y-122085500D03*
%TO.P,SW1,6*%
%TO.N,GND*%
X140134700Y-119585500D03*
%TD*%
D16*
%TO.P,D1,1*%
%TO.N,GND*%
X138652699Y-135841499D03*
D17*
%TO.P,D1,2*%
%TO.N,LD*%
X138652700Y-133301500D03*
%TD*%
D12*
%TO.P,U3,1*%
%TO.N,A7*%
X133532699Y-117934499D03*
D13*
%TO.P,U3,2*%
%TO.N,A6*%
X130992699Y-117934499D03*
%TO.P,U3,3*%
%TO.N,A5*%
X128452699Y-117934499D03*
%TO.P,U3,4*%
%TO.N,A4*%
X125912699Y-117934499D03*
%TO.P,U3,5*%
%TO.N,A3*%
X123372699Y-117934499D03*
%TO.P,U3,6*%
%TO.N,A2*%
X120832699Y-117934499D03*
%TO.P,U3,7*%
%TO.N,A1*%
X118292699Y-117934499D03*
%TO.P,U3,8*%
%TO.N,A0*%
X115752699Y-117934499D03*
%TO.P,U3,9*%
%TO.N,D0*%
X113212699Y-117934499D03*
%TO.P,U3,10*%
%TO.N,D1*%
X110672699Y-117934499D03*
%TO.P,U3,11*%
%TO.N,D2*%
X108132699Y-117934499D03*
%TO.P,U3,12*%
%TO.N,GND*%
X105592699Y-117934499D03*
%TO.P,U3,13*%
%TO.N,D3*%
X105592699Y-133174499D03*
%TO.P,U3,14*%
%TO.N,D4*%
X108132699Y-133174499D03*
%TO.P,U3,15*%
%TO.N,D5*%
X110672699Y-133174499D03*
%TO.P,U3,16*%
%TO.N,D6*%
X113212699Y-133174499D03*
%TO.P,U3,17*%
%TO.N,D7*%
X115752699Y-133174499D03*
%TO.P,U3,18*%
%TO.N,CS2*%
X118292699Y-133174499D03*
%TO.P,U3,19*%
%TO.N,A10*%
X120832699Y-133174499D03*
%TO.P,U3,20*%
%TO.N,OE*%
X123372699Y-133174499D03*
%TO.P,U3,21*%
%TO.N,/CS3*%
X125912699Y-133174499D03*
%TO.P,U3,22*%
%TO.N,A9*%
X128452699Y-133174499D03*
%TO.P,U3,23*%
%TO.N,A8*%
X130992699Y-133174499D03*
%TO.P,U3,24*%
%TO.N,VCC*%
X133532699Y-133174499D03*
%TD*%
D18*
%TO.N,GND*%
X117022700Y-119839500D03*
X127182700Y-119839500D03*
X114482700Y-119839500D03*
X135310700Y-137619500D03*
X109402700Y-119839500D03*
X136072700Y-117579500D03*
X119689700Y-131904500D03*
X110926700Y-126443500D03*
X111872700Y-116939500D03*
X127182700Y-135079500D03*
X114482700Y-135079500D03*
X136772700Y-126269500D03*
X119660000Y-119850000D03*
X123880700Y-131777500D03*
X101380000Y-135500000D03*
X140932700Y-135799500D03*
X124642700Y-119839500D03*
X112072700Y-131739500D03*
X112704700Y-125427500D03*
X131119700Y-128729500D03*
X106862700Y-135079500D03*
X115372700Y-128139500D03*
X125872700Y-124739500D03*
X122102700Y-135079500D03*
X119562700Y-135079500D03*
X126352700Y-127999500D03*
X107872700Y-126739500D03*
X136252700Y-128849500D03*
X138632700Y-124309500D03*
X104032700Y-116819500D03*
X132008700Y-119839500D03*
X127192700Y-137829500D03*
X111942700Y-119839500D03*
X129722700Y-135079500D03*
X111942700Y-135079500D03*
X103512700Y-126679500D03*
X140852700Y-127789500D03*
X119562700Y-116869500D03*
X119552700Y-137909500D03*
X129722700Y-119839500D03*
X101540000Y-120620000D03*
X103952700Y-137873500D03*
X120772700Y-126439500D03*
X132262700Y-135079500D03*
X109402700Y-135079500D03*
X132262700Y-126316500D03*
X119472700Y-121939500D03*
X122190000Y-119880000D03*
X140842700Y-117529500D03*
X129722700Y-131777500D03*
X127262700Y-116869500D03*
X111952700Y-137949500D03*
X103814700Y-123141500D03*
X127182700Y-131777500D03*
X104902700Y-131029500D03*
%TO.N,A11*%
X125277700Y-131523500D03*
%TD*%
D19*
%TO.N,VCC*%
X136834700Y-122085500D02*
X136834700Y-122087500D01*
X133532700Y-125389500D02*
X133532700Y-133174500D01*
X136834700Y-122087500D02*
X133532700Y-125389500D01*
D20*
X136520700Y-122399500D02*
X136834700Y-122085500D01*
D21*
%TO.N,A11*%
X136389420Y-121010500D02*
X139059700Y-121010500D01*
X125277700Y-131523500D02*
X125898700Y-131523500D01*
X135759700Y-121662500D02*
X135759700Y-121640220D01*
X139059700Y-121010500D02*
X140134700Y-122085500D01*
X135759700Y-121640220D02*
X136389420Y-121010500D01*
X125898700Y-131523500D02*
X135759700Y-121662500D01*
%TD*%
%TA.AperFunction,Conductor*%
%TO.N,GND*%
G36*
X132681085Y-125844345D02*
G01*
X132718685Y-125888368D01*
X132732200Y-125944663D01*
X132732200Y-132084825D01*
X132720584Y-132137226D01*
X132692690Y-132173582D01*
X132693561Y-132174453D01*
X132536482Y-132331531D01*
X132536476Y-132331537D01*
X132532653Y-132335361D01*
X132529550Y-132339791D01*
X132529547Y-132339796D01*
X132405240Y-132517326D01*
X132405235Y-132517333D01*
X132402132Y-132521766D01*
X132399848Y-132526663D01*
X132399841Y-132526676D01*
X132375082Y-132579774D01*
X132329325Y-132631950D01*
X132262700Y-132651369D01*
X132196075Y-132631950D01*
X132150318Y-132579774D01*
X132125558Y-132526676D01*
X132125555Y-132526672D01*
X132123268Y-132521766D01*
X131992747Y-132335361D01*
X131831839Y-132174453D01*
X131645434Y-132043932D01*
X131439196Y-131947761D01*
X131433971Y-131946361D01*
X131433963Y-131946358D01*
X131224616Y-131890264D01*
X131224607Y-131890262D01*
X131219392Y-131888865D01*
X131214004Y-131888393D01*
X131214001Y-131888393D01*
X130998095Y-131869504D01*
X130992700Y-131869032D01*
X130987305Y-131869504D01*
X130771398Y-131888393D01*
X130771393Y-131888393D01*
X130766008Y-131888865D01*
X130760794Y-131890262D01*
X130760783Y-131890264D01*
X130551436Y-131946358D01*
X130551424Y-131946362D01*
X130546204Y-131947761D01*
X130541299Y-131950047D01*
X130541294Y-131950050D01*
X130344876Y-132041642D01*
X130344872Y-132041644D01*
X130339966Y-132043932D01*
X130335533Y-132047035D01*
X130335526Y-132047040D01*
X130157996Y-132171347D01*
X130157991Y-132171350D01*
X130153561Y-132174453D01*
X130149737Y-132178276D01*
X130149731Y-132178282D01*
X129996482Y-132331531D01*
X129996476Y-132331537D01*
X129992653Y-132335361D01*
X129989550Y-132339791D01*
X129989547Y-132339796D01*
X129865240Y-132517326D01*
X129865235Y-132517333D01*
X129862132Y-132521766D01*
X129859848Y-132526663D01*
X129859841Y-132526676D01*
X129835082Y-132579774D01*
X129789325Y-132631950D01*
X129722700Y-132651369D01*
X129656075Y-132631950D01*
X129610318Y-132579774D01*
X129585558Y-132526676D01*
X129585555Y-132526672D01*
X129583268Y-132521766D01*
X129452747Y-132335361D01*
X129291839Y-132174453D01*
X129105434Y-132043932D01*
X128899196Y-131947761D01*
X128893971Y-131946361D01*
X128893963Y-131946358D01*
X128684616Y-131890264D01*
X128684607Y-131890262D01*
X128679392Y-131888865D01*
X128674004Y-131888393D01*
X128674001Y-131888393D01*
X128458095Y-131869504D01*
X128452700Y-131869032D01*
X128447305Y-131869504D01*
X128231398Y-131888393D01*
X128231393Y-131888393D01*
X128226008Y-131888865D01*
X128220794Y-131890262D01*
X128220783Y-131890264D01*
X128011436Y-131946358D01*
X128011424Y-131946362D01*
X128006204Y-131947761D01*
X128001299Y-131950047D01*
X128001294Y-131950050D01*
X127804876Y-132041642D01*
X127804872Y-132041644D01*
X127799966Y-132043932D01*
X127795533Y-132047035D01*
X127795526Y-132047040D01*
X127617996Y-132171347D01*
X127617991Y-132171350D01*
X127613561Y-132174453D01*
X127609737Y-132178276D01*
X127609731Y-132178282D01*
X127456482Y-132331531D01*
X127456476Y-132331537D01*
X127452653Y-132335361D01*
X127449550Y-132339791D01*
X127449547Y-132339796D01*
X127325240Y-132517326D01*
X127325235Y-132517333D01*
X127322132Y-132521766D01*
X127319848Y-132526663D01*
X127319841Y-132526676D01*
X127295082Y-132579774D01*
X127249325Y-132631950D01*
X127182700Y-132651369D01*
X127116075Y-132631950D01*
X127070318Y-132579774D01*
X127045558Y-132526676D01*
X127045555Y-132526672D01*
X127043268Y-132521766D01*
X126912747Y-132335361D01*
X126751839Y-132174453D01*
X126569873Y-132047040D01*
X126569869Y-132047037D01*
X126569865Y-132047035D01*
X126565434Y-132043932D01*
X126560527Y-132041644D01*
X126558040Y-132040208D01*
X126516938Y-132001712D01*
X126497101Y-131949007D01*
X126502621Y-131892963D01*
X126532357Y-131845142D01*
X132520518Y-125856982D01*
X132569882Y-125826732D01*
X132627598Y-125822190D01*
X132681085Y-125844345D01*
G37*
%TD.AperFunction*%
%TA.AperFunction,Conductor*%
G36*
X141401680Y-116064996D02*
G01*
X141409673Y-116065260D01*
X141661467Y-116081763D01*
X141677525Y-116083878D01*
X141920941Y-116132297D01*
X141936586Y-116136489D01*
X142171606Y-116216268D01*
X142186577Y-116222469D01*
X142358465Y-116307235D01*
X142409160Y-116332235D01*
X142423206Y-116340345D01*
X142629552Y-116478220D01*
X142642421Y-116488094D01*
X142829005Y-116651725D01*
X142840474Y-116663194D01*
X142935580Y-116771641D01*
X142961890Y-116801642D01*
X143004105Y-116849778D01*
X143013979Y-116862647D01*
X143151854Y-117068993D01*
X143159964Y-117083039D01*
X143269727Y-117305615D01*
X143275934Y-117320600D01*
X143347220Y-117530602D01*
X143355707Y-117555602D01*
X143359905Y-117571270D01*
X143408319Y-117814663D01*
X143410437Y-117830744D01*
X143426935Y-118082457D01*
X143427200Y-118090554D01*
X143429199Y-136833426D01*
X143428934Y-136841549D01*
X143412437Y-137093255D01*
X143410319Y-137109336D01*
X143361905Y-137352729D01*
X143357707Y-137368397D01*
X143277934Y-137603399D01*
X143271727Y-137618384D01*
X143161964Y-137840960D01*
X143153854Y-137855006D01*
X143015979Y-138061352D01*
X143006105Y-138074221D01*
X142842474Y-138260805D01*
X142831005Y-138272274D01*
X142644421Y-138435905D01*
X142631552Y-138445779D01*
X142425206Y-138583654D01*
X142411160Y-138591764D01*
X142188584Y-138701527D01*
X142173599Y-138707734D01*
X141938597Y-138787507D01*
X141922929Y-138791705D01*
X141679536Y-138840119D01*
X141663454Y-138842237D01*
X141411788Y-138858731D01*
X141403598Y-138858996D01*
X103058722Y-138834002D01*
X103050693Y-138833737D01*
X102798944Y-138817237D01*
X102782863Y-138815119D01*
X102644048Y-138787507D01*
X102539469Y-138766704D01*
X102523802Y-138762507D01*
X102288800Y-138682734D01*
X102273815Y-138676527D01*
X102051239Y-138566764D01*
X102037193Y-138558654D01*
X101830847Y-138420779D01*
X101817978Y-138410905D01*
X101631394Y-138247274D01*
X101619925Y-138235805D01*
X101456294Y-138049221D01*
X101446420Y-138036352D01*
X101308545Y-137830006D01*
X101300435Y-137815960D01*
X101244467Y-137702468D01*
X101190669Y-137593377D01*
X101184468Y-137578406D01*
X101104689Y-137343386D01*
X101100497Y-137327741D01*
X101052078Y-137084325D01*
X101049963Y-137068265D01*
X101036280Y-136859500D01*
X104287232Y-136859500D01*
X104287704Y-136864895D01*
X104306204Y-137076359D01*
X104307065Y-137086192D01*
X104308462Y-137091407D01*
X104308464Y-137091416D01*
X104364558Y-137300763D01*
X104364561Y-137300771D01*
X104365961Y-137305996D01*
X104462132Y-137512234D01*
X104465239Y-137516671D01*
X104465240Y-137516673D01*
X104518953Y-137593384D01*
X104592653Y-137698639D01*
X104753561Y-137859547D01*
X104939966Y-137990068D01*
X105146204Y-138086239D01*
X105366008Y-138145135D01*
X105592700Y-138164968D01*
X105819392Y-138145135D01*
X106039196Y-138086239D01*
X106245434Y-137990068D01*
X106431839Y-137859547D01*
X106592747Y-137698639D01*
X106723268Y-137512234D01*
X106750318Y-137454223D01*
X106796072Y-137402050D01*
X106862697Y-137382630D01*
X106929323Y-137402049D01*
X106975080Y-137454224D01*
X106999838Y-137507317D01*
X106999842Y-137507324D01*
X107002132Y-137512234D01*
X107005239Y-137516671D01*
X107005240Y-137516673D01*
X107058953Y-137593384D01*
X107132653Y-137698639D01*
X107293561Y-137859547D01*
X107479966Y-137990068D01*
X107686204Y-138086239D01*
X107906008Y-138145135D01*
X108132700Y-138164968D01*
X108359392Y-138145135D01*
X108579196Y-138086239D01*
X108785434Y-137990068D01*
X108971839Y-137859547D01*
X109132747Y-137698639D01*
X109263268Y-137512234D01*
X109290318Y-137454223D01*
X109336072Y-137402050D01*
X109402697Y-137382630D01*
X109469323Y-137402049D01*
X109515080Y-137454224D01*
X109539838Y-137507317D01*
X109539842Y-137507324D01*
X109542132Y-137512234D01*
X109545239Y-137516671D01*
X109545240Y-137516673D01*
X109598953Y-137593384D01*
X109672653Y-137698639D01*
X109833561Y-137859547D01*
X110019966Y-137990068D01*
X110226204Y-138086239D01*
X110446008Y-138145135D01*
X110672700Y-138164968D01*
X110899392Y-138145135D01*
X111119196Y-138086239D01*
X111325434Y-137990068D01*
X111511839Y-137859547D01*
X111672747Y-137698639D01*
X111803268Y-137512234D01*
X111830318Y-137454223D01*
X111876072Y-137402050D01*
X111942697Y-137382630D01*
X112009323Y-137402049D01*
X112055080Y-137454224D01*
X112079838Y-137507317D01*
X112079842Y-137507324D01*
X112082132Y-137512234D01*
X112085239Y-137516671D01*
X112085240Y-137516673D01*
X112138953Y-137593384D01*
X112212653Y-137698639D01*
X112373561Y-137859547D01*
X112559966Y-137990068D01*
X112766204Y-138086239D01*
X112986008Y-138145135D01*
X113212700Y-138164968D01*
X113439392Y-138145135D01*
X113659196Y-138086239D01*
X113865434Y-137990068D01*
X114051839Y-137859547D01*
X114212747Y-137698639D01*
X114343268Y-137512234D01*
X114370318Y-137454223D01*
X114416072Y-137402050D01*
X114482697Y-137382630D01*
X114549323Y-137402049D01*
X114595080Y-137454224D01*
X114619838Y-137507317D01*
X114619842Y-137507324D01*
X114622132Y-137512234D01*
X114625239Y-137516671D01*
X114625240Y-137516673D01*
X114678953Y-137593384D01*
X114752653Y-137698639D01*
X114913561Y-137859547D01*
X115099966Y-137990068D01*
X115306204Y-138086239D01*
X115526008Y-138145135D01*
X115752700Y-138164968D01*
X115979392Y-138145135D01*
X116199196Y-138086239D01*
X116405434Y-137990068D01*
X116591839Y-137859547D01*
X116752747Y-137698639D01*
X116883268Y-137512234D01*
X116910318Y-137454223D01*
X116956072Y-137402050D01*
X117022697Y-137382630D01*
X117089323Y-137402049D01*
X117135080Y-137454224D01*
X117159838Y-137507317D01*
X117159842Y-137507324D01*
X117162132Y-137512234D01*
X117165239Y-137516671D01*
X117165240Y-137516673D01*
X117218953Y-137593384D01*
X117292653Y-137698639D01*
X117453561Y-137859547D01*
X117639966Y-137990068D01*
X117846204Y-138086239D01*
X118066008Y-138145135D01*
X118292700Y-138164968D01*
X118519392Y-138145135D01*
X118739196Y-138086239D01*
X118945434Y-137990068D01*
X119131839Y-137859547D01*
X119292747Y-137698639D01*
X119423268Y-137512234D01*
X119450318Y-137454223D01*
X119496072Y-137402050D01*
X119562697Y-137382630D01*
X119629323Y-137402049D01*
X119675080Y-137454224D01*
X119699838Y-137507317D01*
X119699842Y-137507324D01*
X119702132Y-137512234D01*
X119705239Y-137516671D01*
X119705240Y-137516673D01*
X119758953Y-137593384D01*
X119832653Y-137698639D01*
X119993561Y-137859547D01*
X120179966Y-137990068D01*
X120386204Y-138086239D01*
X120606008Y-138145135D01*
X120832700Y-138164968D01*
X121059392Y-138145135D01*
X121279196Y-138086239D01*
X121485434Y-137990068D01*
X121671839Y-137859547D01*
X121832747Y-137698639D01*
X121963268Y-137512234D01*
X121990318Y-137454223D01*
X122036072Y-137402050D01*
X122102697Y-137382630D01*
X122169323Y-137402049D01*
X122215080Y-137454224D01*
X122239838Y-137507317D01*
X122239842Y-137507324D01*
X122242132Y-137512234D01*
X122245239Y-137516671D01*
X122245240Y-137516673D01*
X122298953Y-137593384D01*
X122372653Y-137698639D01*
X122533561Y-137859547D01*
X122719966Y-137990068D01*
X122926204Y-138086239D01*
X123146008Y-138145135D01*
X123372700Y-138164968D01*
X123599392Y-138145135D01*
X123819196Y-138086239D01*
X124025434Y-137990068D01*
X124211839Y-137859547D01*
X124372747Y-137698639D01*
X124503268Y-137512234D01*
X124530318Y-137454223D01*
X124576072Y-137402050D01*
X124642697Y-137382630D01*
X124709323Y-137402049D01*
X124755080Y-137454224D01*
X124779838Y-137507317D01*
X124779842Y-137507324D01*
X124782132Y-137512234D01*
X124785239Y-137516671D01*
X124785240Y-137516673D01*
X124838953Y-137593384D01*
X124912653Y-137698639D01*
X125073561Y-137859547D01*
X125259966Y-137990068D01*
X125466204Y-138086239D01*
X125686008Y-138145135D01*
X125912700Y-138164968D01*
X126139392Y-138145135D01*
X126359196Y-138086239D01*
X126565434Y-137990068D01*
X126751839Y-137859547D01*
X126912747Y-137698639D01*
X127043268Y-137512234D01*
X127070318Y-137454223D01*
X127116072Y-137402050D01*
X127182697Y-137382630D01*
X127249323Y-137402049D01*
X127295080Y-137454224D01*
X127319838Y-137507317D01*
X127319842Y-137507324D01*
X127322132Y-137512234D01*
X127325239Y-137516671D01*
X127325240Y-137516673D01*
X127378953Y-137593384D01*
X127452653Y-137698639D01*
X127613561Y-137859547D01*
X127799966Y-137990068D01*
X128006204Y-138086239D01*
X128226008Y-138145135D01*
X128452700Y-138164968D01*
X128679392Y-138145135D01*
X128899196Y-138086239D01*
X129105434Y-137990068D01*
X129291839Y-137859547D01*
X129452747Y-137698639D01*
X129583268Y-137512234D01*
X129610318Y-137454223D01*
X129656072Y-137402050D01*
X129722697Y-137382630D01*
X129789323Y-137402049D01*
X129835080Y-137454224D01*
X129859838Y-137507317D01*
X129859842Y-137507324D01*
X129862132Y-137512234D01*
X129865239Y-137516671D01*
X129865240Y-137516673D01*
X129918953Y-137593384D01*
X129992653Y-137698639D01*
X130153561Y-137859547D01*
X130339966Y-137990068D01*
X130546204Y-138086239D01*
X130766008Y-138145135D01*
X130992700Y-138164968D01*
X131219392Y-138145135D01*
X131439196Y-138086239D01*
X131645434Y-137990068D01*
X131831839Y-137859547D01*
X131992747Y-137698639D01*
X132123268Y-137512234D01*
X132150318Y-137454223D01*
X132196072Y-137402050D01*
X132262697Y-137382630D01*
X132329323Y-137402049D01*
X132375080Y-137454224D01*
X132399838Y-137507317D01*
X132399842Y-137507324D01*
X132402132Y-137512234D01*
X132405239Y-137516671D01*
X132405240Y-137516673D01*
X132458953Y-137593384D01*
X132532653Y-137698639D01*
X132693561Y-137859547D01*
X132879966Y-137990068D01*
X133086204Y-138086239D01*
X133306008Y-138145135D01*
X133532700Y-138164968D01*
X133759392Y-138145135D01*
X133979196Y-138086239D01*
X134185434Y-137990068D01*
X134371839Y-137859547D01*
X134532747Y-137698639D01*
X134663268Y-137512234D01*
X134759439Y-137305996D01*
X134818335Y-137086192D01*
X134835848Y-136886018D01*
X137152700Y-136886018D01*
X137153053Y-136892614D01*
X137158273Y-136941167D01*
X137161811Y-136956141D01*
X137206247Y-137075277D01*
X137214662Y-137090689D01*
X137290198Y-137191592D01*
X137302607Y-137204001D01*
X137403510Y-137279537D01*
X137418922Y-137287952D01*
X137538058Y-137332388D01*
X137553032Y-137335926D01*
X137601585Y-137341146D01*
X137608182Y-137341500D01*
X138386374Y-137341500D01*
X138399249Y-137338049D01*
X138402700Y-137325174D01*
X138902700Y-137325174D01*
X138906150Y-137338049D01*
X138919026Y-137341500D01*
X139697218Y-137341500D01*
X139703814Y-137341146D01*
X139752367Y-137335926D01*
X139767341Y-137332388D01*
X139886477Y-137287952D01*
X139901889Y-137279537D01*
X140002792Y-137204001D01*
X140015201Y-137191592D01*
X140090737Y-137090689D01*
X140099152Y-137075277D01*
X140143588Y-136956141D01*
X140147126Y-136941167D01*
X140152346Y-136892614D01*
X140152700Y-136886018D01*
X140152700Y-136107826D01*
X140149249Y-136094950D01*
X140136374Y-136091500D01*
X138919026Y-136091500D01*
X138906150Y-136094950D01*
X138902700Y-136107826D01*
X138902700Y-137325174D01*
X138402700Y-137325174D01*
X138402700Y-136107826D01*
X138399249Y-136094950D01*
X138386374Y-136091500D01*
X137169026Y-136091500D01*
X137156150Y-136094950D01*
X137152700Y-136107826D01*
X137152700Y-136886018D01*
X134835848Y-136886018D01*
X134838168Y-136859500D01*
X134818335Y-136632808D01*
X134759439Y-136413004D01*
X134663268Y-136206766D01*
X134532747Y-136020361D01*
X134371839Y-135859453D01*
X134185434Y-135728932D01*
X133979196Y-135632761D01*
X133973971Y-135631361D01*
X133973963Y-135631358D01*
X133764616Y-135575264D01*
X133764607Y-135575262D01*
X133759392Y-135573865D01*
X133754004Y-135573393D01*
X133754001Y-135573393D01*
X133538095Y-135554504D01*
X133532700Y-135554032D01*
X133527305Y-135554504D01*
X133311398Y-135573393D01*
X133311393Y-135573393D01*
X133306008Y-135573865D01*
X133300794Y-135575262D01*
X133300783Y-135575264D01*
X133091436Y-135631358D01*
X133091424Y-135631362D01*
X133086204Y-135632761D01*
X133081299Y-135635047D01*
X133081294Y-135635050D01*
X132884876Y-135726642D01*
X132884872Y-135726644D01*
X132879966Y-135728932D01*
X132875533Y-135732035D01*
X132875526Y-135732040D01*
X132697996Y-135856347D01*
X132697991Y-135856350D01*
X132693561Y-135859453D01*
X132689737Y-135863276D01*
X132689731Y-135863282D01*
X132536482Y-136016531D01*
X132536476Y-136016537D01*
X132532653Y-136020361D01*
X132529550Y-136024791D01*
X132529547Y-136024796D01*
X132405240Y-136202326D01*
X132405235Y-136202333D01*
X132402132Y-136206766D01*
X132399848Y-136211663D01*
X132399841Y-136211676D01*
X132375082Y-136264774D01*
X132329325Y-136316950D01*
X132262700Y-136336369D01*
X132196075Y-136316950D01*
X132150318Y-136264774D01*
X132125558Y-136211676D01*
X132125555Y-136211672D01*
X132123268Y-136206766D01*
X131992747Y-136020361D01*
X131831839Y-135859453D01*
X131645434Y-135728932D01*
X131439196Y-135632761D01*
X131433971Y-135631361D01*
X131433963Y-135631358D01*
X131224616Y-135575264D01*
X131224607Y-135575262D01*
X131219392Y-135573865D01*
X131214004Y-135573393D01*
X131214001Y-135573393D01*
X130998095Y-135554504D01*
X130992700Y-135554032D01*
X130987305Y-135554504D01*
X130771398Y-135573393D01*
X130771393Y-135573393D01*
X130766008Y-135573865D01*
X130760794Y-135575262D01*
X130760783Y-135575264D01*
X130551436Y-135631358D01*
X130551424Y-135631362D01*
X130546204Y-135632761D01*
X130541299Y-135635047D01*
X130541294Y-135635050D01*
X130344876Y-135726642D01*
X130344872Y-135726644D01*
X130339966Y-135728932D01*
X130335533Y-135732035D01*
X130335526Y-135732040D01*
X130157996Y-135856347D01*
X130157991Y-135856350D01*
X130153561Y-135859453D01*
X130149737Y-135863276D01*
X130149731Y-135863282D01*
X129996482Y-136016531D01*
X129996476Y-136016537D01*
X129992653Y-136020361D01*
X129989550Y-136024791D01*
X129989547Y-136024796D01*
X129865240Y-136202326D01*
X129865235Y-136202333D01*
X129862132Y-136206766D01*
X129859848Y-136211663D01*
X129859841Y-136211676D01*
X129835082Y-136264774D01*
X129789325Y-136316950D01*
X129722700Y-136336369D01*
X129656075Y-136316950D01*
X129610318Y-136264774D01*
X129585558Y-136211676D01*
X129585555Y-136211672D01*
X129583268Y-136206766D01*
X129452747Y-136020361D01*
X129291839Y-135859453D01*
X129105434Y-135728932D01*
X128899196Y-135632761D01*
X128893971Y-135631361D01*
X128893963Y-135631358D01*
X128684616Y-135575264D01*
X128684607Y-135575262D01*
X128679392Y-135573865D01*
X128674004Y-135573393D01*
X128674001Y-135573393D01*
X128458095Y-135554504D01*
X128452700Y-135554032D01*
X128447305Y-135554504D01*
X128231398Y-135573393D01*
X128231393Y-135573393D01*
X128226008Y-135573865D01*
X128220794Y-135575262D01*
X128220783Y-135575264D01*
X128011436Y-135631358D01*
X128011424Y-135631362D01*
X128006204Y-135632761D01*
X128001299Y-135635047D01*
X128001294Y-135635050D01*
X127804876Y-135726642D01*
X127804872Y-135726644D01*
X127799966Y-135728932D01*
X127795533Y-135732035D01*
X127795526Y-135732040D01*
X127617996Y-135856347D01*
X127617991Y-135856350D01*
X127613561Y-135859453D01*
X127609737Y-135863276D01*
X127609731Y-135863282D01*
X127456482Y-136016531D01*
X127456476Y-136016537D01*
X127452653Y-136020361D01*
X127449550Y-136024791D01*
X127449547Y-136024796D01*
X127325240Y-136202326D01*
X127325235Y-136202333D01*
X127322132Y-136206766D01*
X127319848Y-136211663D01*
X127319841Y-136211676D01*
X127295082Y-136264774D01*
X127249325Y-136316950D01*
X127182700Y-136336369D01*
X127116075Y-136316950D01*
X127070318Y-136264774D01*
X127045558Y-136211676D01*
X127045555Y-136211672D01*
X127043268Y-136206766D01*
X126912747Y-136020361D01*
X126751839Y-135859453D01*
X126565434Y-135728932D01*
X126359196Y-135632761D01*
X126353971Y-135631361D01*
X126353963Y-135631358D01*
X126144616Y-135575264D01*
X126144607Y-135575262D01*
X126139392Y-135573865D01*
X126134004Y-135573393D01*
X126134001Y-135573393D01*
X125918095Y-135554504D01*
X125912700Y-135554032D01*
X125907305Y-135554504D01*
X125691398Y-135573393D01*
X125691393Y-135573393D01*
X125686008Y-135573865D01*
X125680794Y-135575262D01*
X125680783Y-135575264D01*
X125471436Y-135631358D01*
X125471424Y-135631362D01*
X125466204Y-135632761D01*
X125461299Y-135635047D01*
X125461294Y-135635050D01*
X125264876Y-135726642D01*
X125264872Y-135726644D01*
X125259966Y-135728932D01*
X125255533Y-135732035D01*
X125255526Y-135732040D01*
X125077996Y-135856347D01*
X125077991Y-135856350D01*
X125073561Y-135859453D01*
X125069737Y-135863276D01*
X125069731Y-135863282D01*
X124916482Y-136016531D01*
X124916476Y-136016537D01*
X124912653Y-136020361D01*
X124909550Y-136024791D01*
X124909547Y-136024796D01*
X124785240Y-136202326D01*
X124785235Y-136202333D01*
X124782132Y-136206766D01*
X124779848Y-136211663D01*
X124779841Y-136211676D01*
X124755082Y-136264774D01*
X124709325Y-136316950D01*
X124642700Y-136336369D01*
X124576075Y-136316950D01*
X124530318Y-136264774D01*
X124505558Y-136211676D01*
X124505555Y-136211672D01*
X124503268Y-136206766D01*
X124372747Y-136020361D01*
X124211839Y-135859453D01*
X124025434Y-135728932D01*
X123819196Y-135632761D01*
X123813971Y-135631361D01*
X123813963Y-135631358D01*
X123604616Y-135575264D01*
X123604607Y-135575262D01*
X123599392Y-135573865D01*
X123594004Y-135573393D01*
X123594001Y-135573393D01*
X123378095Y-135554504D01*
X123372700Y-135554032D01*
X123367305Y-135554504D01*
X123151398Y-135573393D01*
X123151393Y-135573393D01*
X123146008Y-135573865D01*
X123140794Y-135575262D01*
X123140783Y-135575264D01*
X122931436Y-135631358D01*
X122931424Y-135631362D01*
X122926204Y-135632761D01*
X122921299Y-135635047D01*
X122921294Y-135635050D01*
X122724876Y-135726642D01*
X122724872Y-135726644D01*
X122719966Y-135728932D01*
X122715533Y-135732035D01*
X122715526Y-135732040D01*
X122537996Y-135856347D01*
X122537991Y-135856350D01*
X122533561Y-135859453D01*
X122529737Y-135863276D01*
X122529731Y-135863282D01*
X122376482Y-136016531D01*
X122376476Y-136016537D01*
X122372653Y-136020361D01*
X122369550Y-136024791D01*
X122369547Y-136024796D01*
X122245240Y-136202326D01*
X122245235Y-136202333D01*
X122242132Y-136206766D01*
X122239848Y-136211663D01*
X122239841Y-136211676D01*
X122215082Y-136264774D01*
X122169325Y-136316950D01*
X122102700Y-136336369D01*
X122036075Y-136316950D01*
X121990318Y-136264774D01*
X121965558Y-136211676D01*
X121965555Y-136211672D01*
X121963268Y-136206766D01*
X121832747Y-136020361D01*
X121671839Y-135859453D01*
X121485434Y-135728932D01*
X121279196Y-135632761D01*
X121273971Y-135631361D01*
X121273963Y-135631358D01*
X121064616Y-135575264D01*
X121064607Y-135575262D01*
X121059392Y-135573865D01*
X121054004Y-135573393D01*
X121054001Y-135573393D01*
X120838095Y-135554504D01*
X120832700Y-135554032D01*
X120827305Y-135554504D01*
X120611398Y-135573393D01*
X120611393Y-135573393D01*
X120606008Y-135573865D01*
X120600794Y-135575262D01*
X120600783Y-135575264D01*
X120391436Y-135631358D01*
X120391424Y-135631362D01*
X120386204Y-135632761D01*
X120381299Y-135635047D01*
X120381294Y-135635050D01*
X120184876Y-135726642D01*
X120184872Y-135726644D01*
X120179966Y-135728932D01*
X120175533Y-135732035D01*
X120175526Y-135732040D01*
X119997996Y-135856347D01*
X119997991Y-135856350D01*
X119993561Y-135859453D01*
X119989737Y-135863276D01*
X119989731Y-135863282D01*
X119836482Y-136016531D01*
X119836476Y-136016537D01*
X119832653Y-136020361D01*
X119829550Y-136024791D01*
X119829547Y-136024796D01*
X119705240Y-136202326D01*
X119705235Y-136202333D01*
X119702132Y-136206766D01*
X119699848Y-136211663D01*
X119699841Y-136211676D01*
X119675082Y-136264774D01*
X119629325Y-136316950D01*
X119562700Y-136336369D01*
X119496075Y-136316950D01*
X119450318Y-136264774D01*
X119425558Y-136211676D01*
X119425555Y-136211672D01*
X119423268Y-136206766D01*
X119292747Y-136020361D01*
X119131839Y-135859453D01*
X118945434Y-135728932D01*
X118739196Y-135632761D01*
X118733971Y-135631361D01*
X118733963Y-135631358D01*
X118524616Y-135575264D01*
X118524607Y-135575262D01*
X118519392Y-135573865D01*
X118514004Y-135573393D01*
X118514001Y-135573393D01*
X118298095Y-135554504D01*
X118292700Y-135554032D01*
X118287305Y-135554504D01*
X118071398Y-135573393D01*
X118071393Y-135573393D01*
X118066008Y-135573865D01*
X118060794Y-135575262D01*
X118060783Y-135575264D01*
X117851436Y-135631358D01*
X117851424Y-135631362D01*
X117846204Y-135632761D01*
X117841299Y-135635047D01*
X117841294Y-135635050D01*
X117644876Y-135726642D01*
X117644872Y-135726644D01*
X117639966Y-135728932D01*
X117635533Y-135732035D01*
X117635526Y-135732040D01*
X117457996Y-135856347D01*
X117457991Y-135856350D01*
X117453561Y-135859453D01*
X117449737Y-135863276D01*
X117449731Y-135863282D01*
X117296482Y-136016531D01*
X117296476Y-136016537D01*
X117292653Y-136020361D01*
X117289550Y-136024791D01*
X117289547Y-136024796D01*
X117165240Y-136202326D01*
X117165235Y-136202333D01*
X117162132Y-136206766D01*
X117159848Y-136211663D01*
X117159841Y-136211676D01*
X117135082Y-136264774D01*
X117089325Y-136316950D01*
X117022700Y-136336369D01*
X116956075Y-136316950D01*
X116910318Y-136264774D01*
X116885558Y-136211676D01*
X116885555Y-136211672D01*
X116883268Y-136206766D01*
X116752747Y-136020361D01*
X116591839Y-135859453D01*
X116405434Y-135728932D01*
X116199196Y-135632761D01*
X116193971Y-135631361D01*
X116193963Y-135631358D01*
X115984616Y-135575264D01*
X115984607Y-135575262D01*
X115979392Y-135573865D01*
X115974004Y-135573393D01*
X115974001Y-135573393D01*
X115758095Y-135554504D01*
X115752700Y-135554032D01*
X115747305Y-135554504D01*
X115531398Y-135573393D01*
X115531393Y-135573393D01*
X115526008Y-135573865D01*
X115520794Y-135575262D01*
X115520783Y-135575264D01*
X115311436Y-135631358D01*
X115311424Y-135631362D01*
X115306204Y-135632761D01*
X115301299Y-135635047D01*
X115301294Y-135635050D01*
X115104876Y-135726642D01*
X115104872Y-135726644D01*
X115099966Y-135728932D01*
X115095533Y-135732035D01*
X115095526Y-135732040D01*
X114917996Y-135856347D01*
X114917991Y-135856350D01*
X114913561Y-135859453D01*
X114909737Y-135863276D01*
X114909731Y-135863282D01*
X114756482Y-136016531D01*
X114756476Y-136016537D01*
X114752653Y-136020361D01*
X114749550Y-136024791D01*
X114749547Y-136024796D01*
X114625240Y-136202326D01*
X114625235Y-136202333D01*
X114622132Y-136206766D01*
X114619848Y-136211663D01*
X114619841Y-136211676D01*
X114595082Y-136264774D01*
X114549325Y-136316950D01*
X114482700Y-136336369D01*
X114416075Y-136316950D01*
X114370318Y-136264774D01*
X114345558Y-136211676D01*
X114345555Y-136211672D01*
X114343268Y-136206766D01*
X114212747Y-136020361D01*
X114051839Y-135859453D01*
X113865434Y-135728932D01*
X113659196Y-135632761D01*
X113653971Y-135631361D01*
X113653963Y-135631358D01*
X113444616Y-135575264D01*
X113444607Y-135575262D01*
X113439392Y-135573865D01*
X113434004Y-135573393D01*
X113434001Y-135573393D01*
X113218095Y-135554504D01*
X113212700Y-135554032D01*
X113207305Y-135554504D01*
X112991398Y-135573393D01*
X112991393Y-135573393D01*
X112986008Y-135573865D01*
X112980794Y-135575262D01*
X112980783Y-135575264D01*
X112771436Y-135631358D01*
X112771424Y-135631362D01*
X112766204Y-135632761D01*
X112761299Y-135635047D01*
X112761294Y-135635050D01*
X112564876Y-135726642D01*
X112564872Y-135726644D01*
X112559966Y-135728932D01*
X112555533Y-135732035D01*
X112555526Y-135732040D01*
X112377996Y-135856347D01*
X112377991Y-135856350D01*
X112373561Y-135859453D01*
X112369737Y-135863276D01*
X112369731Y-135863282D01*
X112216482Y-136016531D01*
X112216476Y-136016537D01*
X112212653Y-136020361D01*
X112209550Y-136024791D01*
X112209547Y-136024796D01*
X112085240Y-136202326D01*
X112085235Y-136202333D01*
X112082132Y-136206766D01*
X112079848Y-136211663D01*
X112079841Y-136211676D01*
X112055082Y-136264774D01*
X112009325Y-136316950D01*
X111942700Y-136336369D01*
X111876075Y-136316950D01*
X111830318Y-136264774D01*
X111805558Y-136211676D01*
X111805555Y-136211672D01*
X111803268Y-136206766D01*
X111672747Y-136020361D01*
X111511839Y-135859453D01*
X111325434Y-135728932D01*
X111119196Y-135632761D01*
X111113971Y-135631361D01*
X111113963Y-135631358D01*
X110904616Y-135575264D01*
X110904607Y-135575262D01*
X110899392Y-135573865D01*
X110894004Y-135573393D01*
X110894001Y-135573393D01*
X110678095Y-135554504D01*
X110672700Y-135554032D01*
X110667305Y-135554504D01*
X110451398Y-135573393D01*
X110451393Y-135573393D01*
X110446008Y-135573865D01*
X110440794Y-135575262D01*
X110440783Y-135575264D01*
X110231436Y-135631358D01*
X110231424Y-135631362D01*
X110226204Y-135632761D01*
X110221299Y-135635047D01*
X110221294Y-135635050D01*
X110024876Y-135726642D01*
X110024872Y-135726644D01*
X110019966Y-135728932D01*
X110015533Y-135732035D01*
X110015526Y-135732040D01*
X109837996Y-135856347D01*
X109837991Y-135856350D01*
X109833561Y-135859453D01*
X109829737Y-135863276D01*
X109829731Y-135863282D01*
X109676482Y-136016531D01*
X109676476Y-136016537D01*
X109672653Y-136020361D01*
X109669550Y-136024791D01*
X109669547Y-136024796D01*
X109545240Y-136202326D01*
X109545235Y-136202333D01*
X109542132Y-136206766D01*
X109539848Y-136211663D01*
X109539841Y-136211676D01*
X109515082Y-136264774D01*
X109469325Y-136316950D01*
X109402700Y-136336369D01*
X109336075Y-136316950D01*
X109290318Y-136264774D01*
X109265558Y-136211676D01*
X109265555Y-136211672D01*
X109263268Y-136206766D01*
X109132747Y-136020361D01*
X108971839Y-135859453D01*
X108785434Y-135728932D01*
X108579196Y-135632761D01*
X108573971Y-135631361D01*
X108573963Y-135631358D01*
X108364616Y-135575264D01*
X108364607Y-135575262D01*
X108359392Y-135573865D01*
X108354004Y-135573393D01*
X108354001Y-135573393D01*
X108138095Y-135554504D01*
X108132700Y-135554032D01*
X108127305Y-135554504D01*
X107911398Y-135573393D01*
X107911393Y-135573393D01*
X107906008Y-135573865D01*
X107900794Y-135575262D01*
X107900783Y-135575264D01*
X107691436Y-135631358D01*
X107691424Y-135631362D01*
X107686204Y-135632761D01*
X107681299Y-135635047D01*
X107681294Y-135635050D01*
X107484876Y-135726642D01*
X107484872Y-135726644D01*
X107479966Y-135728932D01*
X107475533Y-135732035D01*
X107475526Y-135732040D01*
X107297996Y-135856347D01*
X107297991Y-135856350D01*
X107293561Y-135859453D01*
X107289737Y-135863276D01*
X107289731Y-135863282D01*
X107136482Y-136016531D01*
X107136476Y-136016537D01*
X107132653Y-136020361D01*
X107129550Y-136024791D01*
X107129547Y-136024796D01*
X107005240Y-136202326D01*
X107005235Y-136202333D01*
X107002132Y-136206766D01*
X106999848Y-136211663D01*
X106999841Y-136211676D01*
X106975082Y-136264774D01*
X106929325Y-136316950D01*
X106862700Y-136336369D01*
X106796075Y-136316950D01*
X106750318Y-136264774D01*
X106725558Y-136211676D01*
X106725555Y-136211672D01*
X106723268Y-136206766D01*
X106592747Y-136020361D01*
X106431839Y-135859453D01*
X106245434Y-135728932D01*
X106039196Y-135632761D01*
X106033971Y-135631361D01*
X106033963Y-135631358D01*
X105824616Y-135575264D01*
X105824607Y-135575262D01*
X105819392Y-135573865D01*
X105814004Y-135573393D01*
X105814001Y-135573393D01*
X105598095Y-135554504D01*
X105592700Y-135554032D01*
X105587305Y-135554504D01*
X105371398Y-135573393D01*
X105371393Y-135573393D01*
X105366008Y-135573865D01*
X105360794Y-135575262D01*
X105360783Y-135575264D01*
X105151436Y-135631358D01*
X105151424Y-135631362D01*
X105146204Y-135632761D01*
X105141299Y-135635047D01*
X105141294Y-135635050D01*
X104944876Y-135726642D01*
X104944872Y-135726644D01*
X104939966Y-135728932D01*
X104935533Y-135732035D01*
X104935526Y-135732040D01*
X104757996Y-135856347D01*
X104757991Y-135856350D01*
X104753561Y-135859453D01*
X104749737Y-135863276D01*
X104749731Y-135863282D01*
X104596482Y-136016531D01*
X104596476Y-136016537D01*
X104592653Y-136020361D01*
X104589550Y-136024791D01*
X104589547Y-136024796D01*
X104465240Y-136202326D01*
X104465235Y-136202333D01*
X104462132Y-136206766D01*
X104459844Y-136211672D01*
X104459842Y-136211676D01*
X104368250Y-136408094D01*
X104368247Y-136408099D01*
X104365961Y-136413004D01*
X104364562Y-136418224D01*
X104364558Y-136418236D01*
X104308464Y-136627583D01*
X104308462Y-136627594D01*
X104307065Y-136632808D01*
X104306593Y-136638193D01*
X104306593Y-136638198D01*
X104287704Y-136854105D01*
X104287232Y-136859500D01*
X101036280Y-136859500D01*
X101033465Y-136816542D01*
X101033200Y-136808433D01*
X101033200Y-135138786D01*
X101049813Y-135076786D01*
X101095200Y-135031399D01*
X101157200Y-135014786D01*
X102978460Y-135014786D01*
X102994786Y-135014786D01*
X102994786Y-133174500D01*
X104287232Y-133174500D01*
X104307065Y-133401192D01*
X104308462Y-133406407D01*
X104308464Y-133406416D01*
X104364558Y-133615763D01*
X104364561Y-133615771D01*
X104365961Y-133620996D01*
X104462132Y-133827234D01*
X104592653Y-134013639D01*
X104753561Y-134174547D01*
X104939966Y-134305068D01*
X105146204Y-134401239D01*
X105151434Y-134402640D01*
X105151436Y-134402641D01*
X105360783Y-134458735D01*
X105366008Y-134460135D01*
X105592700Y-134479968D01*
X105819392Y-134460135D01*
X106039196Y-134401239D01*
X106245434Y-134305068D01*
X106431839Y-134174547D01*
X106592747Y-134013639D01*
X106723268Y-133827234D01*
X106750318Y-133769224D01*
X106796075Y-133717049D01*
X106862700Y-133697630D01*
X106929325Y-133717049D01*
X106975081Y-133769224D01*
X107002132Y-133827234D01*
X107132653Y-134013639D01*
X107293561Y-134174547D01*
X107479966Y-134305068D01*
X107686204Y-134401239D01*
X107691434Y-134402640D01*
X107691436Y-134402641D01*
X107900783Y-134458735D01*
X107906008Y-134460135D01*
X108132700Y-134479968D01*
X108359392Y-134460135D01*
X108579196Y-134401239D01*
X108785434Y-134305068D01*
X108971839Y-134174547D01*
X109132747Y-134013639D01*
X109263268Y-133827234D01*
X109290318Y-133769224D01*
X109336075Y-133717049D01*
X109402700Y-133697630D01*
X109469325Y-133717049D01*
X109515081Y-133769224D01*
X109542132Y-133827234D01*
X109672653Y-134013639D01*
X109833561Y-134174547D01*
X110019966Y-134305068D01*
X110226204Y-134401239D01*
X110231434Y-134402640D01*
X110231436Y-134402641D01*
X110440783Y-134458735D01*
X110446008Y-134460135D01*
X110672700Y-134479968D01*
X110899392Y-134460135D01*
X111119196Y-134401239D01*
X111325434Y-134305068D01*
X111511839Y-134174547D01*
X111672747Y-134013639D01*
X111803268Y-133827234D01*
X111830318Y-133769224D01*
X111876075Y-133717049D01*
X111942700Y-133697630D01*
X112009325Y-133717049D01*
X112055081Y-133769224D01*
X112082132Y-133827234D01*
X112212653Y-134013639D01*
X112373561Y-134174547D01*
X112559966Y-134305068D01*
X112766204Y-134401239D01*
X112771434Y-134402640D01*
X112771436Y-134402641D01*
X112980783Y-134458735D01*
X112986008Y-134460135D01*
X113212700Y-134479968D01*
X113439392Y-134460135D01*
X113659196Y-134401239D01*
X113865434Y-134305068D01*
X114051839Y-134174547D01*
X114212747Y-134013639D01*
X114343268Y-133827234D01*
X114370318Y-133769224D01*
X114416075Y-133717049D01*
X114482700Y-133697630D01*
X114549325Y-133717049D01*
X114595081Y-133769224D01*
X114622132Y-133827234D01*
X114752653Y-134013639D01*
X114913561Y-134174547D01*
X115099966Y-134305068D01*
X115306204Y-134401239D01*
X115311434Y-134402640D01*
X115311436Y-134402641D01*
X115520783Y-134458735D01*
X115526008Y-134460135D01*
X115752700Y-134479968D01*
X115979392Y-134460135D01*
X116199196Y-134401239D01*
X116405434Y-134305068D01*
X116591839Y-134174547D01*
X116752747Y-134013639D01*
X116883268Y-133827234D01*
X116910318Y-133769224D01*
X116956075Y-133717049D01*
X117022700Y-133697630D01*
X117089325Y-133717049D01*
X117135081Y-133769224D01*
X117162132Y-133827234D01*
X117292653Y-134013639D01*
X117453561Y-134174547D01*
X117639966Y-134305068D01*
X117846204Y-134401239D01*
X117851434Y-134402640D01*
X117851436Y-134402641D01*
X118060783Y-134458735D01*
X118066008Y-134460135D01*
X118292700Y-134479968D01*
X118519392Y-134460135D01*
X118739196Y-134401239D01*
X118945434Y-134305068D01*
X119131839Y-134174547D01*
X119292747Y-134013639D01*
X119423268Y-133827234D01*
X119450318Y-133769224D01*
X119496075Y-133717049D01*
X119562700Y-133697630D01*
X119629325Y-133717049D01*
X119675081Y-133769224D01*
X119702132Y-133827234D01*
X119832653Y-134013639D01*
X119993561Y-134174547D01*
X120179966Y-134305068D01*
X120386204Y-134401239D01*
X120391434Y-134402640D01*
X120391436Y-134402641D01*
X120600783Y-134458735D01*
X120606008Y-134460135D01*
X120832700Y-134479968D01*
X121059392Y-134460135D01*
X121279196Y-134401239D01*
X121485434Y-134305068D01*
X121671839Y-134174547D01*
X121832747Y-134013639D01*
X121963268Y-133827234D01*
X121990318Y-133769224D01*
X122036075Y-133717049D01*
X122102700Y-133697630D01*
X122169325Y-133717049D01*
X122215081Y-133769224D01*
X122242132Y-133827234D01*
X122372653Y-134013639D01*
X122533561Y-134174547D01*
X122719966Y-134305068D01*
X122926204Y-134401239D01*
X122931434Y-134402640D01*
X122931436Y-134402641D01*
X123140783Y-134458735D01*
X123146008Y-134460135D01*
X123372700Y-134479968D01*
X123599392Y-134460135D01*
X123819196Y-134401239D01*
X124025434Y-134305068D01*
X124211839Y-134174547D01*
X124372747Y-134013639D01*
X124503268Y-133827234D01*
X124530318Y-133769224D01*
X124576075Y-133717049D01*
X124642700Y-133697630D01*
X124709325Y-133717049D01*
X124755081Y-133769224D01*
X124782132Y-133827234D01*
X124912653Y-134013639D01*
X125073561Y-134174547D01*
X125259966Y-134305068D01*
X125466204Y-134401239D01*
X125471434Y-134402640D01*
X125471436Y-134402641D01*
X125680783Y-134458735D01*
X125686008Y-134460135D01*
X125912700Y-134479968D01*
X126139392Y-134460135D01*
X126359196Y-134401239D01*
X126565434Y-134305068D01*
X126751839Y-134174547D01*
X126912747Y-134013639D01*
X127043268Y-133827234D01*
X127070318Y-133769224D01*
X127116075Y-133717049D01*
X127182700Y-133697630D01*
X127249325Y-133717049D01*
X127295081Y-133769224D01*
X127322132Y-133827234D01*
X127452653Y-134013639D01*
X127613561Y-134174547D01*
X127799966Y-134305068D01*
X128006204Y-134401239D01*
X128011434Y-134402640D01*
X128011436Y-134402641D01*
X128220783Y-134458735D01*
X128226008Y-134460135D01*
X128452700Y-134479968D01*
X128679392Y-134460135D01*
X128899196Y-134401239D01*
X129105434Y-134305068D01*
X129291839Y-134174547D01*
X129452747Y-134013639D01*
X129583268Y-133827234D01*
X129610318Y-133769224D01*
X129656075Y-133717049D01*
X129722700Y-133697630D01*
X129789325Y-133717049D01*
X129835081Y-133769224D01*
X129862132Y-133827234D01*
X129992653Y-134013639D01*
X130153561Y-134174547D01*
X130339966Y-134305068D01*
X130546204Y-134401239D01*
X130551434Y-134402640D01*
X130551436Y-134402641D01*
X130760783Y-134458735D01*
X130766008Y-134460135D01*
X130992700Y-134479968D01*
X131219392Y-134460135D01*
X131439196Y-134401239D01*
X131645434Y-134305068D01*
X131831839Y-134174547D01*
X131992747Y-134013639D01*
X132123268Y-133827234D01*
X132150318Y-133769224D01*
X132196075Y-133717049D01*
X132262700Y-133697630D01*
X132329325Y-133717049D01*
X132375081Y-133769224D01*
X132402132Y-133827234D01*
X132532653Y-134013639D01*
X132693561Y-134174547D01*
X132879966Y-134305068D01*
X133086204Y-134401239D01*
X133091434Y-134402640D01*
X133091436Y-134402641D01*
X133300783Y-134458735D01*
X133306008Y-134460135D01*
X133532700Y-134479968D01*
X133759392Y-134460135D01*
X133979196Y-134401239D01*
X134185434Y-134305068D01*
X134371839Y-134174547D01*
X134532747Y-134013639D01*
X134663268Y-133827234D01*
X134759439Y-133620996D01*
X134818335Y-133401192D01*
X134827057Y-133301500D01*
X137147057Y-133301500D01*
X137147481Y-133306617D01*
X137167167Y-133544201D01*
X137167168Y-133544209D01*
X137167592Y-133549321D01*
X137168849Y-133554288D01*
X137168851Y-133554295D01*
X137227378Y-133785410D01*
X137228637Y-133790381D01*
X137230697Y-133795077D01*
X137326466Y-134013410D01*
X137326469Y-134013416D01*
X137328527Y-134018107D01*
X137460413Y-134219974D01*
X137480552Y-134284220D01*
X137464146Y-134349522D01*
X137416033Y-134396624D01*
X137403511Y-134403461D01*
X137302607Y-134478998D01*
X137290198Y-134491407D01*
X137214662Y-134592310D01*
X137206247Y-134607722D01*
X137161811Y-134726858D01*
X137158273Y-134741832D01*
X137153053Y-134790385D01*
X137152700Y-134796982D01*
X137152700Y-135575174D01*
X137156150Y-135588049D01*
X137169026Y-135591500D01*
X140136374Y-135591500D01*
X140149249Y-135588049D01*
X140152700Y-135575174D01*
X140152700Y-134796982D01*
X140152346Y-134790385D01*
X140147126Y-134741832D01*
X140143588Y-134726858D01*
X140099152Y-134607722D01*
X140090737Y-134592310D01*
X140015201Y-134491407D01*
X140002792Y-134478998D01*
X139901889Y-134403462D01*
X139889368Y-134396625D01*
X139841254Y-134349523D01*
X139824847Y-134284220D01*
X139844986Y-134219974D01*
X139976873Y-134018107D01*
X140076763Y-133790381D01*
X140137808Y-133549321D01*
X140158343Y-133301500D01*
X140137808Y-133053679D01*
X140076763Y-132812619D01*
X139976873Y-132584893D01*
X139932729Y-132517326D01*
X139843671Y-132381012D01*
X139840864Y-132376715D01*
X139799269Y-132331531D01*
X139675915Y-132197532D01*
X139675911Y-132197529D01*
X139672444Y-132193762D01*
X139476209Y-132041026D01*
X139437100Y-132019861D01*
X139262016Y-131925110D01*
X139262010Y-131925107D01*
X139257510Y-131922672D01*
X139252669Y-131921010D01*
X139252662Y-131921007D01*
X139027165Y-131843594D01*
X139027161Y-131843593D01*
X139022314Y-131841929D01*
X139013468Y-131840452D01*
X138782098Y-131801844D01*
X138782087Y-131801843D01*
X138777035Y-131801000D01*
X138528365Y-131801000D01*
X138523313Y-131801843D01*
X138523301Y-131801844D01*
X138288143Y-131841085D01*
X138288141Y-131841085D01*
X138283086Y-131841929D01*
X138278241Y-131843592D01*
X138278234Y-131843594D01*
X138052737Y-131921007D01*
X138052726Y-131921011D01*
X138047890Y-131922672D01*
X138043393Y-131925105D01*
X138043383Y-131925110D01*
X137833702Y-132038584D01*
X137833695Y-132038588D01*
X137829191Y-132041026D01*
X137825148Y-132044172D01*
X137825140Y-132044178D01*
X137637004Y-132190611D01*
X137632956Y-132193762D01*
X137629493Y-132197523D01*
X137629484Y-132197532D01*
X137468011Y-132372939D01*
X137468005Y-132372946D01*
X137464536Y-132376715D01*
X137461731Y-132381006D01*
X137461728Y-132381012D01*
X137331331Y-132580599D01*
X137331324Y-132580611D01*
X137328527Y-132584893D01*
X137326472Y-132589577D01*
X137326466Y-132589589D01*
X137230697Y-132807922D01*
X137228637Y-132812619D01*
X137227379Y-132817584D01*
X137227378Y-132817589D01*
X137168851Y-133048704D01*
X137168849Y-133048713D01*
X137167592Y-133053679D01*
X137167168Y-133058788D01*
X137167167Y-133058798D01*
X137157133Y-133179895D01*
X137147057Y-133301500D01*
X134827057Y-133301500D01*
X134838168Y-133174500D01*
X134818335Y-132947808D01*
X134759439Y-132728004D01*
X134663268Y-132521766D01*
X134532747Y-132335361D01*
X134371839Y-132174453D01*
X134372709Y-132173582D01*
X134344816Y-132137226D01*
X134333200Y-132084825D01*
X134333200Y-125772440D01*
X134342639Y-125724987D01*
X134369519Y-125684759D01*
X134534759Y-125519519D01*
X135422522Y-124631755D01*
X135471882Y-124601507D01*
X135529598Y-124596965D01*
X135583085Y-124619120D01*
X135620685Y-124663143D01*
X135634200Y-124719438D01*
X135634200Y-125330060D01*
X135634200Y-125330078D01*
X135634201Y-125333372D01*
X135634553Y-125336650D01*
X135634554Y-125336661D01*
X135639779Y-125385268D01*
X135639780Y-125385273D01*
X135640609Y-125392983D01*
X135643319Y-125400249D01*
X135643320Y-125400253D01*
X135676917Y-125490331D01*
X135690904Y-125527831D01*
X135777154Y-125643046D01*
X135892369Y-125729296D01*
X136027217Y-125779591D01*
X136086827Y-125786000D01*
X137582572Y-125785999D01*
X137642183Y-125779591D01*
X137777031Y-125729296D01*
X137892246Y-125643046D01*
X137978496Y-125527831D01*
X138028791Y-125392983D01*
X138035200Y-125333373D01*
X138035199Y-123837628D01*
X138028791Y-123778017D01*
X137978496Y-123643169D01*
X137892246Y-123527954D01*
X137860485Y-123504178D01*
X137784131Y-123447019D01*
X137784130Y-123447018D01*
X137777031Y-123441704D01*
X137642183Y-123391409D01*
X137634470Y-123390579D01*
X137634467Y-123390579D01*
X137585880Y-123385355D01*
X137585869Y-123385354D01*
X137582573Y-123385000D01*
X137579251Y-123385000D01*
X137452195Y-123385000D01*
X137390858Y-123368767D01*
X137345580Y-123324318D01*
X137328216Y-123263291D01*
X137343313Y-123201664D01*
X137386918Y-123155573D01*
X137437581Y-123124203D01*
X137561262Y-123047624D01*
X137725681Y-122897736D01*
X137859758Y-122720189D01*
X137958929Y-122521028D01*
X138019815Y-122307036D01*
X138040343Y-122085500D01*
X138019815Y-121863964D01*
X138014116Y-121843934D01*
X138011493Y-121787215D01*
X138034428Y-121735273D01*
X138078110Y-121699000D01*
X138133382Y-121686000D01*
X138728537Y-121686000D01*
X138775990Y-121695439D01*
X138816218Y-121722319D01*
X138909126Y-121815227D01*
X138938075Y-121860797D01*
X138944916Y-121914349D01*
X138929057Y-122085500D01*
X138929586Y-122091209D01*
X138936095Y-122161459D01*
X138949585Y-122307036D01*
X138951154Y-122312550D01*
X139008901Y-122515513D01*
X139008904Y-122515521D01*
X139010471Y-122521028D01*
X139013023Y-122526153D01*
X139013025Y-122526158D01*
X139107087Y-122715059D01*
X139107089Y-122715063D01*
X139109642Y-122720189D01*
X139113091Y-122724756D01*
X139113094Y-122724761D01*
X139240261Y-122893158D01*
X139240266Y-122893163D01*
X139243719Y-122897736D01*
X139247955Y-122901597D01*
X139247959Y-122901602D01*
X139360303Y-123004017D01*
X139408138Y-123047624D01*
X139597299Y-123164747D01*
X139602640Y-123166816D01*
X139602650Y-123166821D01*
X139739595Y-123219874D01*
X139787966Y-123253669D01*
X139815240Y-123305996D01*
X139815240Y-123365004D01*
X139787966Y-123417331D01*
X139739595Y-123451126D01*
X139602650Y-123504178D01*
X139602631Y-123504187D01*
X139597299Y-123506253D01*
X139592427Y-123509269D01*
X139592424Y-123509271D01*
X139413009Y-123620359D01*
X139413001Y-123620364D01*
X139408138Y-123623376D01*
X139403907Y-123627232D01*
X139403903Y-123627236D01*
X139247959Y-123769397D01*
X139247949Y-123769407D01*
X139243719Y-123773264D01*
X139240270Y-123777830D01*
X139240261Y-123777841D01*
X139113094Y-123946238D01*
X139113087Y-123946248D01*
X139109642Y-123950811D01*
X139107092Y-123955931D01*
X139107087Y-123955940D01*
X139013025Y-124144841D01*
X139013021Y-124144849D01*
X139010471Y-124149972D01*
X139008905Y-124155475D01*
X139008901Y-124155486D01*
X138951154Y-124358449D01*
X138949585Y-124363964D01*
X138929057Y-124585500D01*
X138949585Y-124807036D01*
X138951154Y-124812550D01*
X139008901Y-125015513D01*
X139008904Y-125015521D01*
X139010471Y-125021028D01*
X139013023Y-125026153D01*
X139013025Y-125026158D01*
X139107087Y-125215059D01*
X139107089Y-125215063D01*
X139109642Y-125220189D01*
X139113091Y-125224756D01*
X139113094Y-125224761D01*
X139240261Y-125393158D01*
X139240266Y-125393163D01*
X139243719Y-125397736D01*
X139247955Y-125401597D01*
X139247959Y-125401602D01*
X139360303Y-125504017D01*
X139408138Y-125547624D01*
X139597299Y-125664747D01*
X139804760Y-125745118D01*
X140023457Y-125786000D01*
X140240214Y-125786000D01*
X140245943Y-125786000D01*
X140464640Y-125745118D01*
X140672101Y-125664747D01*
X140861262Y-125547624D01*
X141025681Y-125397736D01*
X141159758Y-125220189D01*
X141258929Y-125021028D01*
X141319815Y-124807036D01*
X141340343Y-124585500D01*
X141319815Y-124363964D01*
X141258929Y-124149972D01*
X141159758Y-123950811D01*
X141076787Y-123840939D01*
X141029138Y-123777841D01*
X141029134Y-123777837D01*
X141025681Y-123773264D01*
X141021444Y-123769401D01*
X141021440Y-123769397D01*
X140865496Y-123627236D01*
X140865497Y-123627236D01*
X140861262Y-123623376D01*
X140856392Y-123620361D01*
X140856390Y-123620359D01*
X140707149Y-123527954D01*
X140672101Y-123506253D01*
X140529803Y-123451126D01*
X140481433Y-123417331D01*
X140454159Y-123365004D01*
X140454159Y-123305996D01*
X140481433Y-123253669D01*
X140529803Y-123219873D01*
X140672101Y-123164747D01*
X140861262Y-123047624D01*
X141025681Y-122897736D01*
X141159758Y-122720189D01*
X141258929Y-122521028D01*
X141319815Y-122307036D01*
X141340343Y-122085500D01*
X141319815Y-121863964D01*
X141258929Y-121649972D01*
X141159758Y-121450811D01*
X141138015Y-121422018D01*
X141029138Y-121277841D01*
X141029134Y-121277837D01*
X141025681Y-121273264D01*
X141021444Y-121269401D01*
X141021440Y-121269397D01*
X140865496Y-121127236D01*
X140865497Y-121127236D01*
X140861262Y-121123376D01*
X140856392Y-121120361D01*
X140856390Y-121120359D01*
X140702966Y-121025364D01*
X140672101Y-121006253D01*
X140529113Y-120950859D01*
X140480742Y-120917063D01*
X140453468Y-120864736D01*
X140453468Y-120805728D01*
X140480742Y-120753401D01*
X140529113Y-120719605D01*
X140666530Y-120666369D01*
X140676755Y-120661277D01*
X140776102Y-120599763D01*
X140784040Y-120591917D01*
X140778110Y-120582463D01*
X139781147Y-119585500D01*
X140493131Y-119585500D01*
X140499795Y-119597042D01*
X141130985Y-120228232D01*
X141143150Y-120234886D01*
X141154278Y-120226616D01*
X141155877Y-120224499D01*
X141161886Y-120214795D01*
X141255906Y-120025977D01*
X141260029Y-120015332D01*
X141317751Y-119812458D01*
X141319849Y-119801236D01*
X141339312Y-119591209D01*
X141339312Y-119579791D01*
X141319849Y-119369763D01*
X141317751Y-119358541D01*
X141260029Y-119155667D01*
X141255906Y-119145022D01*
X141161886Y-118956204D01*
X141155879Y-118946502D01*
X141154279Y-118944384D01*
X141143149Y-118936113D01*
X141130985Y-118942766D01*
X140499795Y-119573957D01*
X140493131Y-119585500D01*
X139781147Y-119585500D01*
X139138415Y-118942768D01*
X139126248Y-118936113D01*
X139115120Y-118944384D01*
X139113521Y-118946501D01*
X139107514Y-118956203D01*
X139013493Y-119145022D01*
X139009370Y-119155667D01*
X138951648Y-119358541D01*
X138949550Y-119369763D01*
X138930088Y-119579791D01*
X138930088Y-119591209D01*
X138949550Y-119801236D01*
X138951648Y-119812458D01*
X139009370Y-120015332D01*
X139013493Y-120025977D01*
X139078102Y-120155728D01*
X139090970Y-120216727D01*
X139072529Y-120276278D01*
X139027441Y-120319329D01*
X138967102Y-120335000D01*
X138002856Y-120335000D01*
X137942517Y-120319329D01*
X137897429Y-120276277D01*
X137878988Y-120216727D01*
X137891856Y-120155728D01*
X137896235Y-120146932D01*
X137958929Y-120021028D01*
X138019815Y-119807036D01*
X138040343Y-119585500D01*
X138019815Y-119363964D01*
X137958929Y-119149972D01*
X137876250Y-118983931D01*
X137862312Y-118955940D01*
X137862311Y-118955939D01*
X137859758Y-118950811D01*
X137854905Y-118944384D01*
X137729138Y-118777841D01*
X137729134Y-118777837D01*
X137725681Y-118773264D01*
X137721444Y-118769401D01*
X137721440Y-118769397D01*
X137565496Y-118627236D01*
X137565497Y-118627236D01*
X137561262Y-118623376D01*
X137556392Y-118620361D01*
X137556390Y-118620359D01*
X137489723Y-118579081D01*
X139485359Y-118579081D01*
X139491289Y-118588536D01*
X140123157Y-119220404D01*
X140134700Y-119227068D01*
X140146242Y-119220404D01*
X140778109Y-118588536D01*
X140784039Y-118579081D01*
X140776103Y-118571236D01*
X140676749Y-118509718D01*
X140666536Y-118504632D01*
X140469848Y-118428435D01*
X140458865Y-118425310D01*
X140251526Y-118386552D01*
X140240167Y-118385500D01*
X140029233Y-118385500D01*
X140017873Y-118386552D01*
X139810534Y-118425310D01*
X139799551Y-118428435D01*
X139602863Y-118504632D01*
X139592650Y-118509718D01*
X139493294Y-118571236D01*
X139485359Y-118579081D01*
X137489723Y-118579081D01*
X137376975Y-118509271D01*
X137376976Y-118509271D01*
X137372101Y-118506253D01*
X137295191Y-118476458D01*
X137169986Y-118427953D01*
X137169985Y-118427952D01*
X137164640Y-118425882D01*
X137159002Y-118424828D01*
X136951572Y-118386052D01*
X136951569Y-118386051D01*
X136945943Y-118385000D01*
X136723457Y-118385000D01*
X136717831Y-118386051D01*
X136717827Y-118386052D01*
X136510397Y-118424828D01*
X136510394Y-118424828D01*
X136504760Y-118425882D01*
X136499417Y-118427951D01*
X136499413Y-118427953D01*
X136302641Y-118504183D01*
X136302636Y-118504185D01*
X136297299Y-118506253D01*
X136292427Y-118509269D01*
X136292424Y-118509271D01*
X136113009Y-118620359D01*
X136113001Y-118620364D01*
X136108138Y-118623376D01*
X136103907Y-118627232D01*
X136103903Y-118627236D01*
X135947959Y-118769397D01*
X135947949Y-118769407D01*
X135943719Y-118773264D01*
X135940270Y-118777830D01*
X135940261Y-118777841D01*
X135813094Y-118946238D01*
X135813087Y-118946248D01*
X135809642Y-118950811D01*
X135807092Y-118955931D01*
X135807087Y-118955940D01*
X135713025Y-119144841D01*
X135713021Y-119144849D01*
X135710471Y-119149972D01*
X135708905Y-119155475D01*
X135708901Y-119155486D01*
X135651154Y-119358449D01*
X135649585Y-119363964D01*
X135649056Y-119369669D01*
X135649056Y-119369671D01*
X135630127Y-119573957D01*
X135629057Y-119585500D01*
X135629586Y-119591209D01*
X135649047Y-119801236D01*
X135649585Y-119807036D01*
X135651154Y-119812550D01*
X135708901Y-120015513D01*
X135708904Y-120015521D01*
X135710471Y-120021028D01*
X135713023Y-120026153D01*
X135713025Y-120026158D01*
X135807087Y-120215059D01*
X135807089Y-120215063D01*
X135809642Y-120220189D01*
X135880509Y-120314032D01*
X135922180Y-120369214D01*
X135945005Y-120420579D01*
X135942809Y-120476743D01*
X135916042Y-120526168D01*
X135899828Y-120544470D01*
X135894693Y-120549924D01*
X135299124Y-121145493D01*
X135293672Y-121150625D01*
X135255986Y-121184012D01*
X135255978Y-121184020D01*
X135250368Y-121188991D01*
X135246107Y-121195163D01*
X135246106Y-121195165D01*
X135217500Y-121236607D01*
X135213063Y-121242636D01*
X135177375Y-121288190D01*
X135176703Y-121287663D01*
X135167362Y-121299535D01*
X135044878Y-121422019D01*
X134995517Y-121452268D01*
X134937801Y-121456810D01*
X134884314Y-121434655D01*
X134846714Y-121390632D01*
X134833199Y-121334337D01*
X134833199Y-120774939D01*
X134833199Y-120771628D01*
X134826791Y-120712017D01*
X134776496Y-120577169D01*
X134690246Y-120461954D01*
X134601504Y-120395522D01*
X134582131Y-120381019D01*
X134582130Y-120381018D01*
X134575031Y-120375704D01*
X134490886Y-120344320D01*
X134447452Y-120328120D01*
X134447450Y-120328119D01*
X134440183Y-120325409D01*
X134432470Y-120324579D01*
X134432467Y-120324579D01*
X134383880Y-120319355D01*
X134383869Y-120319354D01*
X134380573Y-120319000D01*
X134377250Y-120319000D01*
X132688139Y-120319000D01*
X132688120Y-120319000D01*
X132684828Y-120319001D01*
X132681550Y-120319353D01*
X132681538Y-120319354D01*
X132632931Y-120324579D01*
X132632925Y-120324580D01*
X132625217Y-120325409D01*
X132617952Y-120328118D01*
X132617946Y-120328120D01*
X132498680Y-120372604D01*
X132498678Y-120372604D01*
X132490369Y-120375704D01*
X132483272Y-120381016D01*
X132483268Y-120381019D01*
X132382250Y-120456641D01*
X132382246Y-120456644D01*
X132375154Y-120461954D01*
X132369844Y-120469046D01*
X132369841Y-120469050D01*
X132294219Y-120570068D01*
X132294216Y-120570072D01*
X132288904Y-120577169D01*
X132285804Y-120585478D01*
X132285804Y-120585480D01*
X132241320Y-120704747D01*
X132241319Y-120704750D01*
X132238609Y-120712017D01*
X132237779Y-120719727D01*
X132237779Y-120719732D01*
X132234837Y-120747097D01*
X132214457Y-120803018D01*
X132170368Y-120843001D01*
X132112727Y-120857834D01*
X132054814Y-120844100D01*
X132009973Y-120804963D01*
X131992747Y-120780361D01*
X131831839Y-120619453D01*
X131645434Y-120488932D01*
X131515139Y-120428174D01*
X131444105Y-120395050D01*
X131444103Y-120395049D01*
X131439196Y-120392761D01*
X131433971Y-120391361D01*
X131433963Y-120391358D01*
X131224616Y-120335264D01*
X131224607Y-120335262D01*
X131219392Y-120333865D01*
X131214004Y-120333393D01*
X131214001Y-120333393D01*
X130998095Y-120314504D01*
X130992700Y-120314032D01*
X130987305Y-120314504D01*
X130771398Y-120333393D01*
X130771393Y-120333393D01*
X130766008Y-120333865D01*
X130760794Y-120335262D01*
X130760783Y-120335264D01*
X130551436Y-120391358D01*
X130551424Y-120391362D01*
X130546204Y-120392761D01*
X130541299Y-120395047D01*
X130541294Y-120395050D01*
X130344876Y-120486642D01*
X130344872Y-120486644D01*
X130339966Y-120488932D01*
X130335533Y-120492035D01*
X130335526Y-120492040D01*
X130157996Y-120616347D01*
X130157991Y-120616350D01*
X130153561Y-120619453D01*
X130149737Y-120623276D01*
X130149731Y-120623282D01*
X129996482Y-120776531D01*
X129996476Y-120776537D01*
X129992653Y-120780361D01*
X129989550Y-120784791D01*
X129989547Y-120784796D01*
X129865240Y-120962326D01*
X129865235Y-120962333D01*
X129862132Y-120966766D01*
X129859848Y-120971663D01*
X129859841Y-120971676D01*
X129835082Y-121024774D01*
X129789325Y-121076950D01*
X129722700Y-121096369D01*
X129656075Y-121076950D01*
X129610318Y-121024774D01*
X129585558Y-120971676D01*
X129585555Y-120971672D01*
X129583268Y-120966766D01*
X129452747Y-120780361D01*
X129291839Y-120619453D01*
X129105434Y-120488932D01*
X128975139Y-120428174D01*
X128904105Y-120395050D01*
X128904103Y-120395049D01*
X128899196Y-120392761D01*
X128893971Y-120391361D01*
X128893963Y-120391358D01*
X128684616Y-120335264D01*
X128684607Y-120335262D01*
X128679392Y-120333865D01*
X128674004Y-120333393D01*
X128674001Y-120333393D01*
X128458095Y-120314504D01*
X128452700Y-120314032D01*
X128447305Y-120314504D01*
X128231398Y-120333393D01*
X128231393Y-120333393D01*
X128226008Y-120333865D01*
X128220794Y-120335262D01*
X128220783Y-120335264D01*
X128011436Y-120391358D01*
X128011424Y-120391362D01*
X128006204Y-120392761D01*
X128001299Y-120395047D01*
X128001294Y-120395050D01*
X127804876Y-120486642D01*
X127804872Y-120486644D01*
X127799966Y-120488932D01*
X127795533Y-120492035D01*
X127795526Y-120492040D01*
X127617996Y-120616347D01*
X127617991Y-120616350D01*
X127613561Y-120619453D01*
X127609737Y-120623276D01*
X127609731Y-120623282D01*
X127456482Y-120776531D01*
X127456476Y-120776537D01*
X127452653Y-120780361D01*
X127449550Y-120784791D01*
X127449547Y-120784796D01*
X127325240Y-120962326D01*
X127325235Y-120962333D01*
X127322132Y-120966766D01*
X127319848Y-120971663D01*
X127319841Y-120971676D01*
X127295082Y-121024774D01*
X127249325Y-121076950D01*
X127182700Y-121096369D01*
X127116075Y-121076950D01*
X127070318Y-121024774D01*
X127045558Y-120971676D01*
X127045555Y-120971672D01*
X127043268Y-120966766D01*
X126912747Y-120780361D01*
X126751839Y-120619453D01*
X126565434Y-120488932D01*
X126435139Y-120428174D01*
X126364105Y-120395050D01*
X126364103Y-120395049D01*
X126359196Y-120392761D01*
X126353971Y-120391361D01*
X126353963Y-120391358D01*
X126144616Y-120335264D01*
X126144607Y-120335262D01*
X126139392Y-120333865D01*
X126134004Y-120333393D01*
X126134001Y-120333393D01*
X125918095Y-120314504D01*
X125912700Y-120314032D01*
X125907305Y-120314504D01*
X125691398Y-120333393D01*
X125691393Y-120333393D01*
X125686008Y-120333865D01*
X125680794Y-120335262D01*
X125680783Y-120335264D01*
X125471436Y-120391358D01*
X125471424Y-120391362D01*
X125466204Y-120392761D01*
X125461299Y-120395047D01*
X125461294Y-120395050D01*
X125264876Y-120486642D01*
X125264872Y-120486644D01*
X125259966Y-120488932D01*
X125255533Y-120492035D01*
X125255526Y-120492040D01*
X125077996Y-120616347D01*
X125077991Y-120616350D01*
X125073561Y-120619453D01*
X125069737Y-120623276D01*
X125069731Y-120623282D01*
X124916482Y-120776531D01*
X124916476Y-120776537D01*
X124912653Y-120780361D01*
X124909550Y-120784791D01*
X124909547Y-120784796D01*
X124785240Y-120962326D01*
X124785235Y-120962333D01*
X124782132Y-120966766D01*
X124779848Y-120971663D01*
X124779841Y-120971676D01*
X124755082Y-121024774D01*
X124709325Y-121076950D01*
X124642700Y-121096369D01*
X124576075Y-121076950D01*
X124530318Y-121024774D01*
X124505558Y-120971676D01*
X124505555Y-120971672D01*
X124503268Y-120966766D01*
X124372747Y-120780361D01*
X124211839Y-120619453D01*
X124025434Y-120488932D01*
X123895139Y-120428174D01*
X123824105Y-120395050D01*
X123824103Y-120395049D01*
X123819196Y-120392761D01*
X123813971Y-120391361D01*
X123813963Y-120391358D01*
X123604616Y-120335264D01*
X123604607Y-120335262D01*
X123599392Y-120333865D01*
X123594004Y-120333393D01*
X123594001Y-120333393D01*
X123378095Y-120314504D01*
X123372700Y-120314032D01*
X123367305Y-120314504D01*
X123151398Y-120333393D01*
X123151393Y-120333393D01*
X123146008Y-120333865D01*
X123140794Y-120335262D01*
X123140783Y-120335264D01*
X122931436Y-120391358D01*
X122931424Y-120391362D01*
X122926204Y-120392761D01*
X122921299Y-120395047D01*
X122921294Y-120395050D01*
X122724876Y-120486642D01*
X122724872Y-120486644D01*
X122719966Y-120488932D01*
X122715533Y-120492035D01*
X122715526Y-120492040D01*
X122537996Y-120616347D01*
X122537991Y-120616350D01*
X122533561Y-120619453D01*
X122529737Y-120623276D01*
X122529731Y-120623282D01*
X122376482Y-120776531D01*
X122376476Y-120776537D01*
X122372653Y-120780361D01*
X122369550Y-120784791D01*
X122369547Y-120784796D01*
X122245240Y-120962326D01*
X122245235Y-120962333D01*
X122242132Y-120966766D01*
X122239848Y-120971663D01*
X122239841Y-120971676D01*
X122215082Y-121024774D01*
X122169325Y-121076950D01*
X122102700Y-121096369D01*
X122036075Y-121076950D01*
X121990318Y-121024774D01*
X121965558Y-120971676D01*
X121965555Y-120971672D01*
X121963268Y-120966766D01*
X121832747Y-120780361D01*
X121671839Y-120619453D01*
X121485434Y-120488932D01*
X121355139Y-120428174D01*
X121284105Y-120395050D01*
X121284103Y-120395049D01*
X121279196Y-120392761D01*
X121273971Y-120391361D01*
X121273963Y-120391358D01*
X121064616Y-120335264D01*
X121064607Y-120335262D01*
X121059392Y-120333865D01*
X121054004Y-120333393D01*
X121054001Y-120333393D01*
X120838095Y-120314504D01*
X120832700Y-120314032D01*
X120827305Y-120314504D01*
X120611398Y-120333393D01*
X120611393Y-120333393D01*
X120606008Y-120333865D01*
X120600794Y-120335262D01*
X120600783Y-120335264D01*
X120391436Y-120391358D01*
X120391424Y-120391362D01*
X120386204Y-120392761D01*
X120381299Y-120395047D01*
X120381294Y-120395050D01*
X120184876Y-120486642D01*
X120184872Y-120486644D01*
X120179966Y-120488932D01*
X120175533Y-120492035D01*
X120175526Y-120492040D01*
X119997996Y-120616347D01*
X119997991Y-120616350D01*
X119993561Y-120619453D01*
X119989737Y-120623276D01*
X119989731Y-120623282D01*
X119836482Y-120776531D01*
X119836476Y-120776537D01*
X119832653Y-120780361D01*
X119829550Y-120784791D01*
X119829547Y-120784796D01*
X119705240Y-120962326D01*
X119705235Y-120962333D01*
X119702132Y-120966766D01*
X119699848Y-120971663D01*
X119699841Y-120971676D01*
X119675082Y-121024774D01*
X119629325Y-121076950D01*
X119562700Y-121096369D01*
X119496075Y-121076950D01*
X119450318Y-121024774D01*
X119425558Y-120971676D01*
X119425555Y-120971672D01*
X119423268Y-120966766D01*
X119292747Y-120780361D01*
X119131839Y-120619453D01*
X118945434Y-120488932D01*
X118815139Y-120428174D01*
X118744105Y-120395050D01*
X118744103Y-120395049D01*
X118739196Y-120392761D01*
X118733971Y-120391361D01*
X118733963Y-120391358D01*
X118524616Y-120335264D01*
X118524607Y-120335262D01*
X118519392Y-120333865D01*
X118514004Y-120333393D01*
X118514001Y-120333393D01*
X118298095Y-120314504D01*
X118292700Y-120314032D01*
X118287305Y-120314504D01*
X118071398Y-120333393D01*
X118071393Y-120333393D01*
X118066008Y-120333865D01*
X118060794Y-120335262D01*
X118060783Y-120335264D01*
X117851436Y-120391358D01*
X117851424Y-120391362D01*
X117846204Y-120392761D01*
X117841299Y-120395047D01*
X117841294Y-120395050D01*
X117644876Y-120486642D01*
X117644872Y-120486644D01*
X117639966Y-120488932D01*
X117635533Y-120492035D01*
X117635526Y-120492040D01*
X117457996Y-120616347D01*
X117457991Y-120616350D01*
X117453561Y-120619453D01*
X117449737Y-120623276D01*
X117449731Y-120623282D01*
X117296482Y-120776531D01*
X117296476Y-120776537D01*
X117292653Y-120780361D01*
X117289550Y-120784791D01*
X117289547Y-120784796D01*
X117165240Y-120962326D01*
X117165235Y-120962333D01*
X117162132Y-120966766D01*
X117159848Y-120971663D01*
X117159841Y-120971676D01*
X117135082Y-121024774D01*
X117089325Y-121076950D01*
X117022700Y-121096369D01*
X116956075Y-121076950D01*
X116910318Y-121024774D01*
X116885558Y-120971676D01*
X116885555Y-120971672D01*
X116883268Y-120966766D01*
X116752747Y-120780361D01*
X116591839Y-120619453D01*
X116405434Y-120488932D01*
X116275139Y-120428174D01*
X116204105Y-120395050D01*
X116204103Y-120395049D01*
X116199196Y-120392761D01*
X116193971Y-120391361D01*
X116193963Y-120391358D01*
X115984616Y-120335264D01*
X115984607Y-120335262D01*
X115979392Y-120333865D01*
X115974004Y-120333393D01*
X115974001Y-120333393D01*
X115758095Y-120314504D01*
X115752700Y-120314032D01*
X115747305Y-120314504D01*
X115531398Y-120333393D01*
X115531393Y-120333393D01*
X115526008Y-120333865D01*
X115520794Y-120335262D01*
X115520783Y-120335264D01*
X115311436Y-120391358D01*
X115311424Y-120391362D01*
X115306204Y-120392761D01*
X115301299Y-120395047D01*
X115301294Y-120395050D01*
X115104876Y-120486642D01*
X115104872Y-120486644D01*
X115099966Y-120488932D01*
X115095533Y-120492035D01*
X115095526Y-120492040D01*
X114917996Y-120616347D01*
X114917991Y-120616350D01*
X114913561Y-120619453D01*
X114909737Y-120623276D01*
X114909731Y-120623282D01*
X114756482Y-120776531D01*
X114756476Y-120776537D01*
X114752653Y-120780361D01*
X114749550Y-120784791D01*
X114749547Y-120784796D01*
X114625240Y-120962326D01*
X114625235Y-120962333D01*
X114622132Y-120966766D01*
X114619848Y-120971663D01*
X114619841Y-120971676D01*
X114595082Y-121024774D01*
X114549325Y-121076950D01*
X114482700Y-121096369D01*
X114416075Y-121076950D01*
X114370318Y-121024774D01*
X114345558Y-120971676D01*
X114345555Y-120971672D01*
X114343268Y-120966766D01*
X114212747Y-120780361D01*
X114051839Y-120619453D01*
X113865434Y-120488932D01*
X113735139Y-120428174D01*
X113664105Y-120395050D01*
X113664103Y-120395049D01*
X113659196Y-120392761D01*
X113653971Y-120391361D01*
X113653963Y-120391358D01*
X113444616Y-120335264D01*
X113444607Y-120335262D01*
X113439392Y-120333865D01*
X113434004Y-120333393D01*
X113434001Y-120333393D01*
X113218095Y-120314504D01*
X113212700Y-120314032D01*
X113207305Y-120314504D01*
X112991398Y-120333393D01*
X112991393Y-120333393D01*
X112986008Y-120333865D01*
X112980794Y-120335262D01*
X112980783Y-120335264D01*
X112771436Y-120391358D01*
X112771424Y-120391362D01*
X112766204Y-120392761D01*
X112761299Y-120395047D01*
X112761294Y-120395050D01*
X112564876Y-120486642D01*
X112564872Y-120486644D01*
X112559966Y-120488932D01*
X112555533Y-120492035D01*
X112555526Y-120492040D01*
X112377996Y-120616347D01*
X112377991Y-120616350D01*
X112373561Y-120619453D01*
X112369737Y-120623276D01*
X112369731Y-120623282D01*
X112216482Y-120776531D01*
X112216476Y-120776537D01*
X112212653Y-120780361D01*
X112209550Y-120784791D01*
X112209547Y-120784796D01*
X112085240Y-120962326D01*
X112085235Y-120962333D01*
X112082132Y-120966766D01*
X112079848Y-120971663D01*
X112079841Y-120971676D01*
X112055082Y-121024774D01*
X112009325Y-121076950D01*
X111942700Y-121096369D01*
X111876075Y-121076950D01*
X111830318Y-121024774D01*
X111805558Y-120971676D01*
X111805555Y-120971672D01*
X111803268Y-120966766D01*
X111672747Y-120780361D01*
X111511839Y-120619453D01*
X111325434Y-120488932D01*
X111195139Y-120428174D01*
X111124105Y-120395050D01*
X111124103Y-120395049D01*
X111119196Y-120392761D01*
X111113971Y-120391361D01*
X111113963Y-120391358D01*
X110904616Y-120335264D01*
X110904607Y-120335262D01*
X110899392Y-120333865D01*
X110894004Y-120333393D01*
X110894001Y-120333393D01*
X110678095Y-120314504D01*
X110672700Y-120314032D01*
X110667305Y-120314504D01*
X110451398Y-120333393D01*
X110451393Y-120333393D01*
X110446008Y-120333865D01*
X110440794Y-120335262D01*
X110440783Y-120335264D01*
X110231436Y-120391358D01*
X110231424Y-120391362D01*
X110226204Y-120392761D01*
X110221299Y-120395047D01*
X110221294Y-120395050D01*
X110024876Y-120486642D01*
X110024872Y-120486644D01*
X110019966Y-120488932D01*
X110015533Y-120492035D01*
X110015526Y-120492040D01*
X109837996Y-120616347D01*
X109837991Y-120616350D01*
X109833561Y-120619453D01*
X109829737Y-120623276D01*
X109829731Y-120623282D01*
X109676482Y-120776531D01*
X109676476Y-120776537D01*
X109672653Y-120780361D01*
X109669550Y-120784791D01*
X109669547Y-120784796D01*
X109545240Y-120962326D01*
X109545235Y-120962333D01*
X109542132Y-120966766D01*
X109539848Y-120971663D01*
X109539841Y-120971676D01*
X109515082Y-121024774D01*
X109469325Y-121076950D01*
X109402700Y-121096369D01*
X109336075Y-121076950D01*
X109290318Y-121024774D01*
X109265558Y-120971676D01*
X109265555Y-120971672D01*
X109263268Y-120966766D01*
X109132747Y-120780361D01*
X108971839Y-120619453D01*
X108785434Y-120488932D01*
X108655139Y-120428174D01*
X108584105Y-120395050D01*
X108584103Y-120395049D01*
X108579196Y-120392761D01*
X108573971Y-120391361D01*
X108573963Y-120391358D01*
X108364616Y-120335264D01*
X108364607Y-120335262D01*
X108359392Y-120333865D01*
X108354004Y-120333393D01*
X108354001Y-120333393D01*
X108138095Y-120314504D01*
X108132700Y-120314032D01*
X108127305Y-120314504D01*
X107911398Y-120333393D01*
X107911393Y-120333393D01*
X107906008Y-120333865D01*
X107900794Y-120335262D01*
X107900783Y-120335264D01*
X107691436Y-120391358D01*
X107691424Y-120391362D01*
X107686204Y-120392761D01*
X107681299Y-120395047D01*
X107681294Y-120395050D01*
X107484876Y-120486642D01*
X107484872Y-120486644D01*
X107479966Y-120488932D01*
X107475533Y-120492035D01*
X107475526Y-120492040D01*
X107297996Y-120616347D01*
X107297991Y-120616350D01*
X107293561Y-120619453D01*
X107289737Y-120623276D01*
X107289731Y-120623282D01*
X107136482Y-120776531D01*
X107136476Y-120776537D01*
X107132653Y-120780361D01*
X107129550Y-120784791D01*
X107129547Y-120784796D01*
X107005240Y-120962326D01*
X107005235Y-120962333D01*
X107002132Y-120966766D01*
X106999729Y-120971919D01*
X106974806Y-121025366D01*
X106929048Y-121077541D01*
X106862423Y-121096960D01*
X106795798Y-121077540D01*
X106750042Y-121025364D01*
X106725122Y-120971923D01*
X106719732Y-120962587D01*
X106595467Y-120785118D01*
X106588530Y-120776852D01*
X106435347Y-120623669D01*
X106427081Y-120616732D01*
X106249612Y-120492467D01*
X106240280Y-120487079D01*
X106043934Y-120395522D01*
X106033792Y-120391830D01*
X105856480Y-120344320D01*
X105845251Y-120343952D01*
X105842700Y-120354895D01*
X105842700Y-122884105D01*
X105845251Y-122895047D01*
X105856480Y-122894679D01*
X106033792Y-122847169D01*
X106043934Y-122843477D01*
X106240280Y-122751920D01*
X106249612Y-122746532D01*
X106427081Y-122622267D01*
X106435347Y-122615330D01*
X106588530Y-122462147D01*
X106595467Y-122453881D01*
X106719732Y-122276412D01*
X106725117Y-122267085D01*
X106750041Y-122213635D01*
X106795798Y-122161459D01*
X106862423Y-122142039D01*
X106929049Y-122161458D01*
X106974806Y-122213634D01*
X106999841Y-122267323D01*
X106999845Y-122267331D01*
X107002132Y-122272234D01*
X107005239Y-122276671D01*
X107005240Y-122276673D01*
X107026500Y-122307036D01*
X107132653Y-122458639D01*
X107293561Y-122619547D01*
X107479966Y-122750068D01*
X107686204Y-122846239D01*
X107691434Y-122847640D01*
X107691436Y-122847641D01*
X107900783Y-122903735D01*
X107906008Y-122905135D01*
X108132700Y-122924968D01*
X108359392Y-122905135D01*
X108579196Y-122846239D01*
X108785434Y-122750068D01*
X108971839Y-122619547D01*
X109132747Y-122458639D01*
X109263268Y-122272234D01*
X109290318Y-122214224D01*
X109336075Y-122162049D01*
X109402700Y-122142630D01*
X109469325Y-122162049D01*
X109515081Y-122214224D01*
X109542132Y-122272234D01*
X109545239Y-122276671D01*
X109545240Y-122276673D01*
X109566500Y-122307036D01*
X109672653Y-122458639D01*
X109833561Y-122619547D01*
X110019966Y-122750068D01*
X110226204Y-122846239D01*
X110231434Y-122847640D01*
X110231436Y-122847641D01*
X110440783Y-122903735D01*
X110446008Y-122905135D01*
X110672700Y-122924968D01*
X110899392Y-122905135D01*
X111119196Y-122846239D01*
X111325434Y-122750068D01*
X111511839Y-122619547D01*
X111672747Y-122458639D01*
X111803268Y-122272234D01*
X111830318Y-122214224D01*
X111876075Y-122162049D01*
X111942700Y-122142630D01*
X112009325Y-122162049D01*
X112055081Y-122214224D01*
X112082132Y-122272234D01*
X112085239Y-122276671D01*
X112085240Y-122276673D01*
X112106500Y-122307036D01*
X112212653Y-122458639D01*
X112373561Y-122619547D01*
X112559966Y-122750068D01*
X112766204Y-122846239D01*
X112771434Y-122847640D01*
X112771436Y-122847641D01*
X112980783Y-122903735D01*
X112986008Y-122905135D01*
X113212700Y-122924968D01*
X113439392Y-122905135D01*
X113659196Y-122846239D01*
X113865434Y-122750068D01*
X114051839Y-122619547D01*
X114212747Y-122458639D01*
X114343268Y-122272234D01*
X114370318Y-122214224D01*
X114416075Y-122162049D01*
X114482700Y-122142630D01*
X114549325Y-122162049D01*
X114595081Y-122214224D01*
X114622132Y-122272234D01*
X114625239Y-122276671D01*
X114625240Y-122276673D01*
X114646500Y-122307036D01*
X114752653Y-122458639D01*
X114913561Y-122619547D01*
X115099966Y-122750068D01*
X115306204Y-122846239D01*
X115311434Y-122847640D01*
X115311436Y-122847641D01*
X115520783Y-122903735D01*
X115526008Y-122905135D01*
X115752700Y-122924968D01*
X115979392Y-122905135D01*
X116199196Y-122846239D01*
X116405434Y-122750068D01*
X116591839Y-122619547D01*
X116752747Y-122458639D01*
X116883268Y-122272234D01*
X116910318Y-122214224D01*
X116956075Y-122162049D01*
X117022700Y-122142630D01*
X117089325Y-122162049D01*
X117135081Y-122214224D01*
X117162132Y-122272234D01*
X117165239Y-122276671D01*
X117165240Y-122276673D01*
X117186500Y-122307036D01*
X117292653Y-122458639D01*
X117453561Y-122619547D01*
X117639966Y-122750068D01*
X117846204Y-122846239D01*
X117851434Y-122847640D01*
X117851436Y-122847641D01*
X118060783Y-122903735D01*
X118066008Y-122905135D01*
X118292700Y-122924968D01*
X118519392Y-122905135D01*
X118739196Y-122846239D01*
X118945434Y-122750068D01*
X119131839Y-122619547D01*
X119292747Y-122458639D01*
X119423268Y-122272234D01*
X119450318Y-122214224D01*
X119496075Y-122162049D01*
X119562700Y-122142630D01*
X119629325Y-122162049D01*
X119675081Y-122214224D01*
X119702132Y-122272234D01*
X119705239Y-122276671D01*
X119705240Y-122276673D01*
X119726500Y-122307036D01*
X119832653Y-122458639D01*
X119993561Y-122619547D01*
X120179966Y-122750068D01*
X120386204Y-122846239D01*
X120391434Y-122847640D01*
X120391436Y-122847641D01*
X120600783Y-122903735D01*
X120606008Y-122905135D01*
X120832700Y-122924968D01*
X121059392Y-122905135D01*
X121279196Y-122846239D01*
X121485434Y-122750068D01*
X121671839Y-122619547D01*
X121832747Y-122458639D01*
X121963268Y-122272234D01*
X121990318Y-122214224D01*
X122036075Y-122162049D01*
X122102700Y-122142630D01*
X122169325Y-122162049D01*
X122215081Y-122214224D01*
X122242132Y-122272234D01*
X122245239Y-122276671D01*
X122245240Y-122276673D01*
X122266500Y-122307036D01*
X122372653Y-122458639D01*
X122533561Y-122619547D01*
X122719966Y-122750068D01*
X122926204Y-122846239D01*
X122931434Y-122847640D01*
X122931436Y-122847641D01*
X123140783Y-122903735D01*
X123146008Y-122905135D01*
X123372700Y-122924968D01*
X123599392Y-122905135D01*
X123819196Y-122846239D01*
X124025434Y-122750068D01*
X124211839Y-122619547D01*
X124372747Y-122458639D01*
X124503268Y-122272234D01*
X124530318Y-122214224D01*
X124576075Y-122162049D01*
X124642700Y-122142630D01*
X124709325Y-122162049D01*
X124755081Y-122214224D01*
X124782132Y-122272234D01*
X124785239Y-122276671D01*
X124785240Y-122276673D01*
X124806500Y-122307036D01*
X124912653Y-122458639D01*
X125073561Y-122619547D01*
X125259966Y-122750068D01*
X125466204Y-122846239D01*
X125471434Y-122847640D01*
X125471436Y-122847641D01*
X125680783Y-122903735D01*
X125686008Y-122905135D01*
X125912700Y-122924968D01*
X126139392Y-122905135D01*
X126359196Y-122846239D01*
X126565434Y-122750068D01*
X126751839Y-122619547D01*
X126912747Y-122458639D01*
X127043268Y-122272234D01*
X127070318Y-122214224D01*
X127116075Y-122162049D01*
X127182700Y-122142630D01*
X127249325Y-122162049D01*
X127295081Y-122214224D01*
X127322132Y-122272234D01*
X127325239Y-122276671D01*
X127325240Y-122276673D01*
X127346500Y-122307036D01*
X127452653Y-122458639D01*
X127613561Y-122619547D01*
X127799966Y-122750068D01*
X128006204Y-122846239D01*
X128011434Y-122847640D01*
X128011436Y-122847641D01*
X128220783Y-122903735D01*
X128226008Y-122905135D01*
X128452700Y-122924968D01*
X128679392Y-122905135D01*
X128899196Y-122846239D01*
X129105434Y-122750068D01*
X129291839Y-122619547D01*
X129452747Y-122458639D01*
X129583268Y-122272234D01*
X129610318Y-122214224D01*
X129656075Y-122162049D01*
X129722700Y-122142630D01*
X129789325Y-122162049D01*
X129835081Y-122214224D01*
X129862132Y-122272234D01*
X129865239Y-122276671D01*
X129865240Y-122276673D01*
X129886500Y-122307036D01*
X129992653Y-122458639D01*
X130153561Y-122619547D01*
X130339966Y-122750068D01*
X130546204Y-122846239D01*
X130551434Y-122847640D01*
X130551436Y-122847641D01*
X130760783Y-122903735D01*
X130766008Y-122905135D01*
X130992700Y-122924968D01*
X131219392Y-122905135D01*
X131439196Y-122846239D01*
X131645434Y-122750068D01*
X131831839Y-122619547D01*
X131992747Y-122458639D01*
X132009973Y-122434036D01*
X132054813Y-122394900D01*
X132112726Y-122381165D01*
X132170368Y-122395998D01*
X132214458Y-122435982D01*
X132234838Y-122491905D01*
X132237779Y-122519268D01*
X132237780Y-122519273D01*
X132238609Y-122526983D01*
X132241319Y-122534249D01*
X132241320Y-122534253D01*
X132271560Y-122615330D01*
X132288904Y-122661831D01*
X132294218Y-122668930D01*
X132294219Y-122668931D01*
X132328750Y-122715059D01*
X132375154Y-122777046D01*
X132490369Y-122863296D01*
X132625217Y-122913591D01*
X132684827Y-122920000D01*
X133247537Y-122919999D01*
X133303831Y-122933514D01*
X133347854Y-122971114D01*
X133370009Y-123024601D01*
X133365467Y-123082317D01*
X133335217Y-123131680D01*
X125713403Y-130753494D01*
X125653315Y-130786704D01*
X125584768Y-130782855D01*
X125463527Y-130740431D01*
X125463521Y-130740429D01*
X125456955Y-130738132D01*
X125450035Y-130737352D01*
X125450034Y-130737352D01*
X125284623Y-130718715D01*
X125277700Y-130717935D01*
X125270777Y-130718715D01*
X125105365Y-130737352D01*
X125105362Y-130737352D01*
X125098445Y-130738132D01*
X125091882Y-130740428D01*
X125091875Y-130740430D01*
X124934743Y-130795413D01*
X124934736Y-130795415D01*
X124928178Y-130797711D01*
X124922290Y-130801410D01*
X124922287Y-130801412D01*
X124781338Y-130889976D01*
X124781333Y-130889979D01*
X124775438Y-130893684D01*
X124770513Y-130898608D01*
X124770509Y-130898612D01*
X124652812Y-131016309D01*
X124652808Y-131016313D01*
X124647884Y-131021238D01*
X124644179Y-131027133D01*
X124644176Y-131027138D01*
X124555612Y-131168087D01*
X124555610Y-131168090D01*
X124551911Y-131173978D01*
X124549615Y-131180536D01*
X124549613Y-131180543D01*
X124494630Y-131337675D01*
X124494628Y-131337682D01*
X124492332Y-131344245D01*
X124472135Y-131523500D01*
X124492332Y-131702755D01*
X124494628Y-131709319D01*
X124494630Y-131709324D01*
X124549613Y-131866456D01*
X124551911Y-131873022D01*
X124647884Y-132025762D01*
X124775438Y-132153316D01*
X124781334Y-132157021D01*
X124781337Y-132157023D01*
X124804134Y-132171347D01*
X124848887Y-132199467D01*
X124893492Y-132248348D01*
X124906605Y-132313212D01*
X124884489Y-132375583D01*
X124785240Y-132517326D01*
X124785235Y-132517333D01*
X124782132Y-132521766D01*
X124779848Y-132526663D01*
X124779841Y-132526676D01*
X124755082Y-132579774D01*
X124709325Y-132631950D01*
X124642700Y-132651369D01*
X124576075Y-132631950D01*
X124530318Y-132579774D01*
X124505558Y-132526676D01*
X124505555Y-132526672D01*
X124503268Y-132521766D01*
X124372747Y-132335361D01*
X124211839Y-132174453D01*
X124025434Y-132043932D01*
X123819196Y-131947761D01*
X123813971Y-131946361D01*
X123813963Y-131946358D01*
X123604616Y-131890264D01*
X123604607Y-131890262D01*
X123599392Y-131888865D01*
X123594004Y-131888393D01*
X123594001Y-131888393D01*
X123378095Y-131869504D01*
X123372700Y-131869032D01*
X123367305Y-131869504D01*
X123151398Y-131888393D01*
X123151393Y-131888393D01*
X123146008Y-131888865D01*
X123140794Y-131890262D01*
X123140783Y-131890264D01*
X122931436Y-131946358D01*
X122931424Y-131946362D01*
X122926204Y-131947761D01*
X122921299Y-131950047D01*
X122921294Y-131950050D01*
X122724876Y-132041642D01*
X122724872Y-132041644D01*
X122719966Y-132043932D01*
X122715533Y-132047035D01*
X122715526Y-132047040D01*
X122537996Y-132171347D01*
X122537991Y-132171350D01*
X122533561Y-132174453D01*
X122529737Y-132178276D01*
X122529731Y-132178282D01*
X122376482Y-132331531D01*
X122376476Y-132331537D01*
X122372653Y-132335361D01*
X122369550Y-132339791D01*
X122369547Y-132339796D01*
X122245240Y-132517326D01*
X122245235Y-132517333D01*
X122242132Y-132521766D01*
X122239848Y-132526663D01*
X122239841Y-132526676D01*
X122215082Y-132579774D01*
X122169325Y-132631950D01*
X122102700Y-132651369D01*
X122036075Y-132631950D01*
X121990318Y-132579774D01*
X121965558Y-132526676D01*
X121965555Y-132526672D01*
X121963268Y-132521766D01*
X121832747Y-132335361D01*
X121671839Y-132174453D01*
X121485434Y-132043932D01*
X121279196Y-131947761D01*
X121273971Y-131946361D01*
X121273963Y-131946358D01*
X121064616Y-131890264D01*
X121064607Y-131890262D01*
X121059392Y-131888865D01*
X121054004Y-131888393D01*
X121054001Y-131888393D01*
X120838095Y-131869504D01*
X120832700Y-131869032D01*
X120827305Y-131869504D01*
X120611398Y-131888393D01*
X120611393Y-131888393D01*
X120606008Y-131888865D01*
X120600794Y-131890262D01*
X120600783Y-131890264D01*
X120391436Y-131946358D01*
X120391424Y-131946362D01*
X120386204Y-131947761D01*
X120381299Y-131950047D01*
X120381294Y-131950050D01*
X120184876Y-132041642D01*
X120184872Y-132041644D01*
X120179966Y-132043932D01*
X120175533Y-132047035D01*
X120175526Y-132047040D01*
X119997996Y-132171347D01*
X119997991Y-132171350D01*
X119993561Y-132174453D01*
X119989737Y-132178276D01*
X119989731Y-132178282D01*
X119836482Y-132331531D01*
X119836476Y-132331537D01*
X119832653Y-132335361D01*
X119829550Y-132339791D01*
X119829547Y-132339796D01*
X119705240Y-132517326D01*
X119705235Y-132517333D01*
X119702132Y-132521766D01*
X119699848Y-132526663D01*
X119699841Y-132526676D01*
X119675082Y-132579774D01*
X119629325Y-132631950D01*
X119562700Y-132651369D01*
X119496075Y-132631950D01*
X119450318Y-132579774D01*
X119425558Y-132526676D01*
X119425555Y-132526672D01*
X119423268Y-132521766D01*
X119292747Y-132335361D01*
X119131839Y-132174453D01*
X118945434Y-132043932D01*
X118739196Y-131947761D01*
X118733971Y-131946361D01*
X118733963Y-131946358D01*
X118524616Y-131890264D01*
X118524607Y-131890262D01*
X118519392Y-131888865D01*
X118514004Y-131888393D01*
X118514001Y-131888393D01*
X118298095Y-131869504D01*
X118292700Y-131869032D01*
X118287305Y-131869504D01*
X118071398Y-131888393D01*
X118071393Y-131888393D01*
X118066008Y-131888865D01*
X118060794Y-131890262D01*
X118060783Y-131890264D01*
X117851436Y-131946358D01*
X117851424Y-131946362D01*
X117846204Y-131947761D01*
X117841299Y-131950047D01*
X117841294Y-131950050D01*
X117644876Y-132041642D01*
X117644872Y-132041644D01*
X117639966Y-132043932D01*
X117635533Y-132047035D01*
X117635526Y-132047040D01*
X117457996Y-132171347D01*
X117457991Y-132171350D01*
X117453561Y-132174453D01*
X117449737Y-132178276D01*
X117449731Y-132178282D01*
X117296482Y-132331531D01*
X117296476Y-132331537D01*
X117292653Y-132335361D01*
X117289550Y-132339791D01*
X117289547Y-132339796D01*
X117165240Y-132517326D01*
X117165235Y-132517333D01*
X117162132Y-132521766D01*
X117159848Y-132526663D01*
X117159841Y-132526676D01*
X117135082Y-132579774D01*
X117089325Y-132631950D01*
X117022700Y-132651369D01*
X116956075Y-132631950D01*
X116910318Y-132579774D01*
X116885558Y-132526676D01*
X116885555Y-132526672D01*
X116883268Y-132521766D01*
X116752747Y-132335361D01*
X116591839Y-132174453D01*
X116405434Y-132043932D01*
X116199196Y-131947761D01*
X116193971Y-131946361D01*
X116193963Y-131946358D01*
X115984616Y-131890264D01*
X115984607Y-131890262D01*
X115979392Y-131888865D01*
X115974004Y-131888393D01*
X115974001Y-131888393D01*
X115758095Y-131869504D01*
X115752700Y-131869032D01*
X115747305Y-131869504D01*
X115531398Y-131888393D01*
X115531393Y-131888393D01*
X115526008Y-131888865D01*
X115520794Y-131890262D01*
X115520783Y-131890264D01*
X115311436Y-131946358D01*
X115311424Y-131946362D01*
X115306204Y-131947761D01*
X115301299Y-131950047D01*
X115301294Y-131950050D01*
X115104876Y-132041642D01*
X115104872Y-132041644D01*
X115099966Y-132043932D01*
X115095533Y-132047035D01*
X115095526Y-132047040D01*
X114917996Y-132171347D01*
X114917991Y-132171350D01*
X114913561Y-132174453D01*
X114909737Y-132178276D01*
X114909731Y-132178282D01*
X114756482Y-132331531D01*
X114756476Y-132331537D01*
X114752653Y-132335361D01*
X114749550Y-132339791D01*
X114749547Y-132339796D01*
X114625240Y-132517326D01*
X114625235Y-132517333D01*
X114622132Y-132521766D01*
X114619848Y-132526663D01*
X114619841Y-132526676D01*
X114595082Y-132579774D01*
X114549325Y-132631950D01*
X114482700Y-132651369D01*
X114416075Y-132631950D01*
X114370318Y-132579774D01*
X114345558Y-132526676D01*
X114345555Y-132526672D01*
X114343268Y-132521766D01*
X114212747Y-132335361D01*
X114051839Y-132174453D01*
X113865434Y-132043932D01*
X113659196Y-131947761D01*
X113653971Y-131946361D01*
X113653963Y-131946358D01*
X113444616Y-131890264D01*
X113444607Y-131890262D01*
X113439392Y-131888865D01*
X113434004Y-131888393D01*
X113434001Y-131888393D01*
X113218095Y-131869504D01*
X113212700Y-131869032D01*
X113207305Y-131869504D01*
X112991398Y-131888393D01*
X112991393Y-131888393D01*
X112986008Y-131888865D01*
X112980794Y-131890262D01*
X112980783Y-131890264D01*
X112771436Y-131946358D01*
X112771424Y-131946362D01*
X112766204Y-131947761D01*
X112761299Y-131950047D01*
X112761294Y-131950050D01*
X112564876Y-132041642D01*
X112564872Y-132041644D01*
X112559966Y-132043932D01*
X112555533Y-132047035D01*
X112555526Y-132047040D01*
X112377996Y-132171347D01*
X112377991Y-132171350D01*
X112373561Y-132174453D01*
X112369737Y-132178276D01*
X112369731Y-132178282D01*
X112216482Y-132331531D01*
X112216476Y-132331537D01*
X112212653Y-132335361D01*
X112209550Y-132339791D01*
X112209547Y-132339796D01*
X112085240Y-132517326D01*
X112085235Y-132517333D01*
X112082132Y-132521766D01*
X112079848Y-132526663D01*
X112079841Y-132526676D01*
X112055082Y-132579774D01*
X112009325Y-132631950D01*
X111942700Y-132651369D01*
X111876075Y-132631950D01*
X111830318Y-132579774D01*
X111805558Y-132526676D01*
X111805555Y-132526672D01*
X111803268Y-132521766D01*
X111672747Y-132335361D01*
X111511839Y-132174453D01*
X111325434Y-132043932D01*
X111119196Y-131947761D01*
X111113971Y-131946361D01*
X111113963Y-131946358D01*
X110904616Y-131890264D01*
X110904607Y-131890262D01*
X110899392Y-131888865D01*
X110894004Y-131888393D01*
X110894001Y-131888393D01*
X110678095Y-131869504D01*
X110672700Y-131869032D01*
X110667305Y-131869504D01*
X110451398Y-131888393D01*
X110451393Y-131888393D01*
X110446008Y-131888865D01*
X110440794Y-131890262D01*
X110440783Y-131890264D01*
X110231436Y-131946358D01*
X110231424Y-131946362D01*
X110226204Y-131947761D01*
X110221299Y-131950047D01*
X110221294Y-131950050D01*
X110024876Y-132041642D01*
X110024872Y-132041644D01*
X110019966Y-132043932D01*
X110015533Y-132047035D01*
X110015526Y-132047040D01*
X109837996Y-132171347D01*
X109837991Y-132171350D01*
X109833561Y-132174453D01*
X109829737Y-132178276D01*
X109829731Y-132178282D01*
X109676482Y-132331531D01*
X109676476Y-132331537D01*
X109672653Y-132335361D01*
X109669550Y-132339791D01*
X109669547Y-132339796D01*
X109545240Y-132517326D01*
X109545235Y-132517333D01*
X109542132Y-132521766D01*
X109539848Y-132526663D01*
X109539841Y-132526676D01*
X109515082Y-132579774D01*
X109469325Y-132631950D01*
X109402700Y-132651369D01*
X109336075Y-132631950D01*
X109290318Y-132579774D01*
X109265558Y-132526676D01*
X109265555Y-132526672D01*
X109263268Y-132521766D01*
X109132747Y-132335361D01*
X108971839Y-132174453D01*
X108785434Y-132043932D01*
X108579196Y-131947761D01*
X108573971Y-131946361D01*
X108573963Y-131946358D01*
X108364616Y-131890264D01*
X108364607Y-131890262D01*
X108359392Y-131888865D01*
X108354004Y-131888393D01*
X108354001Y-131888393D01*
X108138095Y-131869504D01*
X108132700Y-131869032D01*
X108127305Y-131869504D01*
X107911398Y-131888393D01*
X107911393Y-131888393D01*
X107906008Y-131888865D01*
X107900794Y-131890262D01*
X107900783Y-131890264D01*
X107691436Y-131946358D01*
X107691424Y-131946362D01*
X107686204Y-131947761D01*
X107681299Y-131950047D01*
X107681294Y-131950050D01*
X107484876Y-132041642D01*
X107484872Y-132041644D01*
X107479966Y-132043932D01*
X107475533Y-132047035D01*
X107475526Y-132047040D01*
X107297996Y-132171347D01*
X107297991Y-132171350D01*
X107293561Y-132174453D01*
X107289737Y-132178276D01*
X107289731Y-132178282D01*
X107136482Y-132331531D01*
X107136476Y-132331537D01*
X107132653Y-132335361D01*
X107129550Y-132339791D01*
X107129547Y-132339796D01*
X107005240Y-132517326D01*
X107005235Y-132517333D01*
X107002132Y-132521766D01*
X106999848Y-132526663D01*
X106999841Y-132526676D01*
X106975082Y-132579774D01*
X106929325Y-132631950D01*
X106862700Y-132651369D01*
X106796075Y-132631950D01*
X106750318Y-132579774D01*
X106725558Y-132526676D01*
X106725555Y-132526672D01*
X106723268Y-132521766D01*
X106592747Y-132335361D01*
X106431839Y-132174453D01*
X106245434Y-132043932D01*
X106039196Y-131947761D01*
X106033971Y-131946361D01*
X106033963Y-131946358D01*
X105824616Y-131890264D01*
X105824607Y-131890262D01*
X105819392Y-131888865D01*
X105814004Y-131888393D01*
X105814001Y-131888393D01*
X105598095Y-131869504D01*
X105592700Y-131869032D01*
X105587305Y-131869504D01*
X105371398Y-131888393D01*
X105371393Y-131888393D01*
X105366008Y-131888865D01*
X105360794Y-131890262D01*
X105360783Y-131890264D01*
X105151436Y-131946358D01*
X105151424Y-131946362D01*
X105146204Y-131947761D01*
X105141299Y-131950047D01*
X105141294Y-131950050D01*
X104944876Y-132041642D01*
X104944872Y-132041644D01*
X104939966Y-132043932D01*
X104935533Y-132047035D01*
X104935526Y-132047040D01*
X104757996Y-132171347D01*
X104757991Y-132171350D01*
X104753561Y-132174453D01*
X104749737Y-132178276D01*
X104749731Y-132178282D01*
X104596482Y-132331531D01*
X104596476Y-132331537D01*
X104592653Y-132335361D01*
X104589550Y-132339791D01*
X104589547Y-132339796D01*
X104465240Y-132517326D01*
X104465235Y-132517333D01*
X104462132Y-132521766D01*
X104459844Y-132526672D01*
X104459842Y-132526676D01*
X104368250Y-132723094D01*
X104368247Y-132723099D01*
X104365961Y-132728004D01*
X104364562Y-132733224D01*
X104364558Y-132733236D01*
X104308464Y-132942583D01*
X104308462Y-132942594D01*
X104307065Y-132947808D01*
X104306593Y-132953193D01*
X104306593Y-132953198D01*
X104287704Y-133169105D01*
X104287232Y-133174500D01*
X102994786Y-133174500D01*
X102994786Y-121872051D01*
X104317152Y-121872051D01*
X104317520Y-121883280D01*
X104365030Y-122060592D01*
X104368722Y-122070734D01*
X104460279Y-122267080D01*
X104465667Y-122276412D01*
X104589932Y-122453881D01*
X104596869Y-122462147D01*
X104750052Y-122615330D01*
X104758318Y-122622267D01*
X104935787Y-122746532D01*
X104945119Y-122751920D01*
X105141465Y-122843477D01*
X105151607Y-122847169D01*
X105328919Y-122894679D01*
X105340148Y-122895047D01*
X105342700Y-122884105D01*
X105342700Y-121885826D01*
X105339249Y-121872950D01*
X105326374Y-121869500D01*
X104328095Y-121869500D01*
X104317152Y-121872051D01*
X102994786Y-121872051D01*
X102994786Y-121366948D01*
X104317152Y-121366948D01*
X104328095Y-121369500D01*
X105326374Y-121369500D01*
X105339249Y-121366049D01*
X105342700Y-121353174D01*
X105342700Y-120354895D01*
X105340148Y-120343952D01*
X105328919Y-120344320D01*
X105151607Y-120391830D01*
X105141465Y-120395522D01*
X104945119Y-120487079D01*
X104935787Y-120492467D01*
X104758318Y-120616732D01*
X104750052Y-120623669D01*
X104596869Y-120776852D01*
X104589932Y-120785118D01*
X104465667Y-120962587D01*
X104460279Y-120971919D01*
X104368722Y-121168265D01*
X104365032Y-121178405D01*
X104317520Y-121355719D01*
X104317152Y-121366948D01*
X102994786Y-121366948D01*
X102994786Y-121230452D01*
X102978460Y-121230452D01*
X101155694Y-121230452D01*
X101093700Y-121213843D01*
X101048314Y-121168464D01*
X101031694Y-121106472D01*
X101031592Y-120476743D01*
X101031220Y-118187051D01*
X104317152Y-118187051D01*
X104317520Y-118198280D01*
X104365030Y-118375592D01*
X104368722Y-118385734D01*
X104460279Y-118582080D01*
X104465667Y-118591412D01*
X104589932Y-118768881D01*
X104596869Y-118777147D01*
X104750052Y-118930330D01*
X104758318Y-118937267D01*
X104935787Y-119061532D01*
X104945119Y-119066920D01*
X105141465Y-119158477D01*
X105151607Y-119162169D01*
X105328919Y-119209679D01*
X105340148Y-119210047D01*
X105342700Y-119199105D01*
X105842700Y-119199105D01*
X105845251Y-119210047D01*
X105856480Y-119209679D01*
X106033792Y-119162169D01*
X106043934Y-119158477D01*
X106240280Y-119066920D01*
X106249612Y-119061532D01*
X106427081Y-118937267D01*
X106435347Y-118930330D01*
X106588530Y-118777147D01*
X106595467Y-118768881D01*
X106719732Y-118591412D01*
X106725117Y-118582085D01*
X106750041Y-118528635D01*
X106795798Y-118476459D01*
X106862423Y-118457039D01*
X106929049Y-118476458D01*
X106974806Y-118528634D01*
X106999841Y-118582323D01*
X106999845Y-118582331D01*
X107002132Y-118587234D01*
X107132653Y-118773639D01*
X107293561Y-118934547D01*
X107479966Y-119065068D01*
X107686204Y-119161239D01*
X107691434Y-119162640D01*
X107691436Y-119162641D01*
X107866985Y-119209679D01*
X107906008Y-119220135D01*
X108132700Y-119239968D01*
X108359392Y-119220135D01*
X108579196Y-119161239D01*
X108785434Y-119065068D01*
X108971839Y-118934547D01*
X109132747Y-118773639D01*
X109263268Y-118587234D01*
X109290318Y-118529224D01*
X109336075Y-118477049D01*
X109402700Y-118457630D01*
X109469325Y-118477049D01*
X109515081Y-118529224D01*
X109542132Y-118587234D01*
X109672653Y-118773639D01*
X109833561Y-118934547D01*
X110019966Y-119065068D01*
X110226204Y-119161239D01*
X110231434Y-119162640D01*
X110231436Y-119162641D01*
X110406985Y-119209679D01*
X110446008Y-119220135D01*
X110672700Y-119239968D01*
X110899392Y-119220135D01*
X111119196Y-119161239D01*
X111325434Y-119065068D01*
X111511839Y-118934547D01*
X111672747Y-118773639D01*
X111803268Y-118587234D01*
X111830318Y-118529224D01*
X111876075Y-118477049D01*
X111942700Y-118457630D01*
X112009325Y-118477049D01*
X112055081Y-118529224D01*
X112082132Y-118587234D01*
X112212653Y-118773639D01*
X112373561Y-118934547D01*
X112559966Y-119065068D01*
X112766204Y-119161239D01*
X112771434Y-119162640D01*
X112771436Y-119162641D01*
X112946985Y-119209679D01*
X112986008Y-119220135D01*
X113212700Y-119239968D01*
X113439392Y-119220135D01*
X113659196Y-119161239D01*
X113865434Y-119065068D01*
X114051839Y-118934547D01*
X114212747Y-118773639D01*
X114343268Y-118587234D01*
X114370318Y-118529224D01*
X114416075Y-118477049D01*
X114482700Y-118457630D01*
X114549325Y-118477049D01*
X114595081Y-118529224D01*
X114622132Y-118587234D01*
X114752653Y-118773639D01*
X114913561Y-118934547D01*
X115099966Y-119065068D01*
X115306204Y-119161239D01*
X115311434Y-119162640D01*
X115311436Y-119162641D01*
X115486985Y-119209679D01*
X115526008Y-119220135D01*
X115752700Y-119239968D01*
X115979392Y-119220135D01*
X116199196Y-119161239D01*
X116405434Y-119065068D01*
X116591839Y-118934547D01*
X116752747Y-118773639D01*
X116883268Y-118587234D01*
X116910318Y-118529224D01*
X116956075Y-118477049D01*
X117022700Y-118457630D01*
X117089325Y-118477049D01*
X117135081Y-118529224D01*
X117162132Y-118587234D01*
X117292653Y-118773639D01*
X117453561Y-118934547D01*
X117639966Y-119065068D01*
X117846204Y-119161239D01*
X117851434Y-119162640D01*
X117851436Y-119162641D01*
X118026985Y-119209679D01*
X118066008Y-119220135D01*
X118292700Y-119239968D01*
X118519392Y-119220135D01*
X118739196Y-119161239D01*
X118945434Y-119065068D01*
X119131839Y-118934547D01*
X119292747Y-118773639D01*
X119423268Y-118587234D01*
X119450318Y-118529224D01*
X119496075Y-118477049D01*
X119562700Y-118457630D01*
X119629325Y-118477049D01*
X119675081Y-118529224D01*
X119702132Y-118587234D01*
X119832653Y-118773639D01*
X119993561Y-118934547D01*
X120179966Y-119065068D01*
X120386204Y-119161239D01*
X120391434Y-119162640D01*
X120391436Y-119162641D01*
X120566985Y-119209679D01*
X120606008Y-119220135D01*
X120832700Y-119239968D01*
X121059392Y-119220135D01*
X121279196Y-119161239D01*
X121485434Y-119065068D01*
X121671839Y-118934547D01*
X121832747Y-118773639D01*
X121963268Y-118587234D01*
X121990318Y-118529224D01*
X122036075Y-118477049D01*
X122102700Y-118457630D01*
X122169325Y-118477049D01*
X122215081Y-118529224D01*
X122242132Y-118587234D01*
X122372653Y-118773639D01*
X122533561Y-118934547D01*
X122719966Y-119065068D01*
X122926204Y-119161239D01*
X122931434Y-119162640D01*
X122931436Y-119162641D01*
X123106985Y-119209679D01*
X123146008Y-119220135D01*
X123372700Y-119239968D01*
X123599392Y-119220135D01*
X123819196Y-119161239D01*
X124025434Y-119065068D01*
X124211839Y-118934547D01*
X124372747Y-118773639D01*
X124503268Y-118587234D01*
X124530318Y-118529224D01*
X124576075Y-118477049D01*
X124642700Y-118457630D01*
X124709325Y-118477049D01*
X124755081Y-118529224D01*
X124782132Y-118587234D01*
X124912653Y-118773639D01*
X125073561Y-118934547D01*
X125259966Y-119065068D01*
X125466204Y-119161239D01*
X125471434Y-119162640D01*
X125471436Y-119162641D01*
X125646985Y-119209679D01*
X125686008Y-119220135D01*
X125912700Y-119239968D01*
X126139392Y-119220135D01*
X126359196Y-119161239D01*
X126565434Y-119065068D01*
X126751839Y-118934547D01*
X126912747Y-118773639D01*
X127043268Y-118587234D01*
X127070318Y-118529224D01*
X127116075Y-118477049D01*
X127182700Y-118457630D01*
X127249325Y-118477049D01*
X127295081Y-118529224D01*
X127322132Y-118587234D01*
X127452653Y-118773639D01*
X127613561Y-118934547D01*
X127799966Y-119065068D01*
X128006204Y-119161239D01*
X128011434Y-119162640D01*
X128011436Y-119162641D01*
X128186985Y-119209679D01*
X128226008Y-119220135D01*
X128452700Y-119239968D01*
X128679392Y-119220135D01*
X128899196Y-119161239D01*
X129105434Y-119065068D01*
X129291839Y-118934547D01*
X129452747Y-118773639D01*
X129583268Y-118587234D01*
X129610318Y-118529224D01*
X129656075Y-118477049D01*
X129722700Y-118457630D01*
X129789325Y-118477049D01*
X129835081Y-118529224D01*
X129862132Y-118587234D01*
X129992653Y-118773639D01*
X130153561Y-118934547D01*
X130339966Y-119065068D01*
X130546204Y-119161239D01*
X130551434Y-119162640D01*
X130551436Y-119162641D01*
X130726985Y-119209679D01*
X130766008Y-119220135D01*
X130992700Y-119239968D01*
X131219392Y-119220135D01*
X131439196Y-119161239D01*
X131645434Y-119065068D01*
X131831839Y-118934547D01*
X131992747Y-118773639D01*
X132009973Y-118749036D01*
X132054813Y-118709900D01*
X132112726Y-118696165D01*
X132170368Y-118710998D01*
X132214458Y-118750982D01*
X132234838Y-118806905D01*
X132237779Y-118834268D01*
X132237780Y-118834273D01*
X132238609Y-118841983D01*
X132241319Y-118849249D01*
X132241320Y-118849253D01*
X132271560Y-118930330D01*
X132288904Y-118976831D01*
X132375154Y-119092046D01*
X132490369Y-119178296D01*
X132625217Y-119228591D01*
X132684827Y-119235000D01*
X134380572Y-119234999D01*
X134440183Y-119228591D01*
X134575031Y-119178296D01*
X134690246Y-119092046D01*
X134776496Y-118976831D01*
X134826791Y-118841983D01*
X134833200Y-118782373D01*
X134833199Y-117086628D01*
X134826791Y-117027017D01*
X134776496Y-116892169D01*
X134690246Y-116776954D01*
X134636735Y-116736896D01*
X134582131Y-116696019D01*
X134582130Y-116696018D01*
X134575031Y-116690704D01*
X134490886Y-116659320D01*
X134447452Y-116643120D01*
X134447450Y-116643119D01*
X134440183Y-116640409D01*
X134432470Y-116639579D01*
X134432467Y-116639579D01*
X134383880Y-116634355D01*
X134383869Y-116634354D01*
X134380573Y-116634000D01*
X134377250Y-116634000D01*
X132688139Y-116634000D01*
X132688120Y-116634000D01*
X132684828Y-116634001D01*
X132681550Y-116634353D01*
X132681538Y-116634354D01*
X132632931Y-116639579D01*
X132632925Y-116639580D01*
X132625217Y-116640409D01*
X132617952Y-116643118D01*
X132617946Y-116643120D01*
X132498680Y-116687604D01*
X132498678Y-116687604D01*
X132490369Y-116690704D01*
X132483272Y-116696016D01*
X132483268Y-116696019D01*
X132382250Y-116771641D01*
X132382246Y-116771644D01*
X132375154Y-116776954D01*
X132369844Y-116784046D01*
X132369841Y-116784050D01*
X132294219Y-116885068D01*
X132294216Y-116885072D01*
X132288904Y-116892169D01*
X132285804Y-116900478D01*
X132285804Y-116900480D01*
X132241320Y-117019747D01*
X132241319Y-117019750D01*
X132238609Y-117027017D01*
X132237779Y-117034727D01*
X132237779Y-117034732D01*
X132234837Y-117062097D01*
X132214457Y-117118018D01*
X132170368Y-117158001D01*
X132112727Y-117172834D01*
X132054814Y-117159100D01*
X132009973Y-117119963D01*
X131992747Y-117095361D01*
X131831839Y-116934453D01*
X131761309Y-116885068D01*
X131649873Y-116807040D01*
X131649871Y-116807039D01*
X131645434Y-116803932D01*
X131501676Y-116736896D01*
X131444105Y-116710050D01*
X131444103Y-116710049D01*
X131439196Y-116707761D01*
X131433971Y-116706361D01*
X131433963Y-116706358D01*
X131224616Y-116650264D01*
X131224607Y-116650262D01*
X131219392Y-116648865D01*
X131214004Y-116648393D01*
X131214001Y-116648393D01*
X130998095Y-116629504D01*
X130992700Y-116629032D01*
X130987305Y-116629504D01*
X130771398Y-116648393D01*
X130771393Y-116648393D01*
X130766008Y-116648865D01*
X130760794Y-116650262D01*
X130760783Y-116650264D01*
X130551436Y-116706358D01*
X130551424Y-116706362D01*
X130546204Y-116707761D01*
X130541299Y-116710047D01*
X130541294Y-116710050D01*
X130344876Y-116801642D01*
X130344872Y-116801644D01*
X130339966Y-116803932D01*
X130335533Y-116807035D01*
X130335526Y-116807040D01*
X130157996Y-116931347D01*
X130157991Y-116931350D01*
X130153561Y-116934453D01*
X130149737Y-116938276D01*
X130149731Y-116938282D01*
X129996482Y-117091531D01*
X129996476Y-117091537D01*
X129992653Y-117095361D01*
X129989550Y-117099791D01*
X129989547Y-117099796D01*
X129865240Y-117277326D01*
X129865235Y-117277333D01*
X129862132Y-117281766D01*
X129859848Y-117286663D01*
X129859841Y-117286676D01*
X129835082Y-117339774D01*
X129789325Y-117391950D01*
X129722700Y-117411369D01*
X129656075Y-117391950D01*
X129610318Y-117339774D01*
X129585558Y-117286676D01*
X129585555Y-117286672D01*
X129583268Y-117281766D01*
X129452747Y-117095361D01*
X129291839Y-116934453D01*
X129221309Y-116885068D01*
X129109873Y-116807040D01*
X129109871Y-116807039D01*
X129105434Y-116803932D01*
X128961676Y-116736896D01*
X128904105Y-116710050D01*
X128904103Y-116710049D01*
X128899196Y-116707761D01*
X128893971Y-116706361D01*
X128893963Y-116706358D01*
X128684616Y-116650264D01*
X128684607Y-116650262D01*
X128679392Y-116648865D01*
X128674004Y-116648393D01*
X128674001Y-116648393D01*
X128458095Y-116629504D01*
X128452700Y-116629032D01*
X128447305Y-116629504D01*
X128231398Y-116648393D01*
X128231393Y-116648393D01*
X128226008Y-116648865D01*
X128220794Y-116650262D01*
X128220783Y-116650264D01*
X128011436Y-116706358D01*
X128011424Y-116706362D01*
X128006204Y-116707761D01*
X128001299Y-116710047D01*
X128001294Y-116710050D01*
X127804876Y-116801642D01*
X127804872Y-116801644D01*
X127799966Y-116803932D01*
X127795533Y-116807035D01*
X127795526Y-116807040D01*
X127617996Y-116931347D01*
X127617991Y-116931350D01*
X127613561Y-116934453D01*
X127609737Y-116938276D01*
X127609731Y-116938282D01*
X127456482Y-117091531D01*
X127456476Y-117091537D01*
X127452653Y-117095361D01*
X127449550Y-117099791D01*
X127449547Y-117099796D01*
X127325240Y-117277326D01*
X127325235Y-117277333D01*
X127322132Y-117281766D01*
X127319848Y-117286663D01*
X127319841Y-117286676D01*
X127295082Y-117339774D01*
X127249325Y-117391950D01*
X127182700Y-117411369D01*
X127116075Y-117391950D01*
X127070318Y-117339774D01*
X127045558Y-117286676D01*
X127045555Y-117286672D01*
X127043268Y-117281766D01*
X126912747Y-117095361D01*
X126751839Y-116934453D01*
X126681309Y-116885068D01*
X126569873Y-116807040D01*
X126569871Y-116807039D01*
X126565434Y-116803932D01*
X126421676Y-116736896D01*
X126364105Y-116710050D01*
X126364103Y-116710049D01*
X126359196Y-116707761D01*
X126353971Y-116706361D01*
X126353963Y-116706358D01*
X126144616Y-116650264D01*
X126144607Y-116650262D01*
X126139392Y-116648865D01*
X126134004Y-116648393D01*
X126134001Y-116648393D01*
X125918095Y-116629504D01*
X125912700Y-116629032D01*
X125907305Y-116629504D01*
X125691398Y-116648393D01*
X125691393Y-116648393D01*
X125686008Y-116648865D01*
X125680794Y-116650262D01*
X125680783Y-116650264D01*
X125471436Y-116706358D01*
X125471424Y-116706362D01*
X125466204Y-116707761D01*
X125461299Y-116710047D01*
X125461294Y-116710050D01*
X125264876Y-116801642D01*
X125264872Y-116801644D01*
X125259966Y-116803932D01*
X125255533Y-116807035D01*
X125255526Y-116807040D01*
X125077996Y-116931347D01*
X125077991Y-116931350D01*
X125073561Y-116934453D01*
X125069737Y-116938276D01*
X125069731Y-116938282D01*
X124916482Y-117091531D01*
X124916476Y-117091537D01*
X124912653Y-117095361D01*
X124909550Y-117099791D01*
X124909547Y-117099796D01*
X124785240Y-117277326D01*
X124785235Y-117277333D01*
X124782132Y-117281766D01*
X124779848Y-117286663D01*
X124779841Y-117286676D01*
X124755082Y-117339774D01*
X124709325Y-117391950D01*
X124642700Y-117411369D01*
X124576075Y-117391950D01*
X124530318Y-117339774D01*
X124505558Y-117286676D01*
X124505555Y-117286672D01*
X124503268Y-117281766D01*
X124372747Y-117095361D01*
X124211839Y-116934453D01*
X124141309Y-116885068D01*
X124029873Y-116807040D01*
X124029871Y-116807039D01*
X124025434Y-116803932D01*
X123881676Y-116736896D01*
X123824105Y-116710050D01*
X123824103Y-116710049D01*
X123819196Y-116707761D01*
X123813971Y-116706361D01*
X123813963Y-116706358D01*
X123604616Y-116650264D01*
X123604607Y-116650262D01*
X123599392Y-116648865D01*
X123594004Y-116648393D01*
X123594001Y-116648393D01*
X123378095Y-116629504D01*
X123372700Y-116629032D01*
X123367305Y-116629504D01*
X123151398Y-116648393D01*
X123151393Y-116648393D01*
X123146008Y-116648865D01*
X123140794Y-116650262D01*
X123140783Y-116650264D01*
X122931436Y-116706358D01*
X122931424Y-116706362D01*
X122926204Y-116707761D01*
X122921299Y-116710047D01*
X122921294Y-116710050D01*
X122724876Y-116801642D01*
X122724872Y-116801644D01*
X122719966Y-116803932D01*
X122715533Y-116807035D01*
X122715526Y-116807040D01*
X122537996Y-116931347D01*
X122537991Y-116931350D01*
X122533561Y-116934453D01*
X122529737Y-116938276D01*
X122529731Y-116938282D01*
X122376482Y-117091531D01*
X122376476Y-117091537D01*
X122372653Y-117095361D01*
X122369550Y-117099791D01*
X122369547Y-117099796D01*
X122245240Y-117277326D01*
X122245235Y-117277333D01*
X122242132Y-117281766D01*
X122239848Y-117286663D01*
X122239841Y-117286676D01*
X122215082Y-117339774D01*
X122169325Y-117391950D01*
X122102700Y-117411369D01*
X122036075Y-117391950D01*
X121990318Y-117339774D01*
X121965558Y-117286676D01*
X121965555Y-117286672D01*
X121963268Y-117281766D01*
X121832747Y-117095361D01*
X121671839Y-116934453D01*
X121601309Y-116885068D01*
X121489873Y-116807040D01*
X121489871Y-116807039D01*
X121485434Y-116803932D01*
X121341676Y-116736896D01*
X121284105Y-116710050D01*
X121284103Y-116710049D01*
X121279196Y-116707761D01*
X121273971Y-116706361D01*
X121273963Y-116706358D01*
X121064616Y-116650264D01*
X121064607Y-116650262D01*
X121059392Y-116648865D01*
X121054004Y-116648393D01*
X121054001Y-116648393D01*
X120838095Y-116629504D01*
X120832700Y-116629032D01*
X120827305Y-116629504D01*
X120611398Y-116648393D01*
X120611393Y-116648393D01*
X120606008Y-116648865D01*
X120600794Y-116650262D01*
X120600783Y-116650264D01*
X120391436Y-116706358D01*
X120391424Y-116706362D01*
X120386204Y-116707761D01*
X120381299Y-116710047D01*
X120381294Y-116710050D01*
X120184876Y-116801642D01*
X120184872Y-116801644D01*
X120179966Y-116803932D01*
X120175533Y-116807035D01*
X120175526Y-116807040D01*
X119997996Y-116931347D01*
X119997991Y-116931350D01*
X119993561Y-116934453D01*
X119989737Y-116938276D01*
X119989731Y-116938282D01*
X119836482Y-117091531D01*
X119836476Y-117091537D01*
X119832653Y-117095361D01*
X119829550Y-117099791D01*
X119829547Y-117099796D01*
X119705240Y-117277326D01*
X119705235Y-117277333D01*
X119702132Y-117281766D01*
X119699848Y-117286663D01*
X119699841Y-117286676D01*
X119675082Y-117339774D01*
X119629325Y-117391950D01*
X119562700Y-117411369D01*
X119496075Y-117391950D01*
X119450318Y-117339774D01*
X119425558Y-117286676D01*
X119425555Y-117286672D01*
X119423268Y-117281766D01*
X119292747Y-117095361D01*
X119131839Y-116934453D01*
X119061309Y-116885068D01*
X118949873Y-116807040D01*
X118949871Y-116807039D01*
X118945434Y-116803932D01*
X118801676Y-116736896D01*
X118744105Y-116710050D01*
X118744103Y-116710049D01*
X118739196Y-116707761D01*
X118733971Y-116706361D01*
X118733963Y-116706358D01*
X118524616Y-116650264D01*
X118524607Y-116650262D01*
X118519392Y-116648865D01*
X118514004Y-116648393D01*
X118514001Y-116648393D01*
X118298095Y-116629504D01*
X118292700Y-116629032D01*
X118287305Y-116629504D01*
X118071398Y-116648393D01*
X118071393Y-116648393D01*
X118066008Y-116648865D01*
X118060794Y-116650262D01*
X118060783Y-116650264D01*
X117851436Y-116706358D01*
X117851424Y-116706362D01*
X117846204Y-116707761D01*
X117841299Y-116710047D01*
X117841294Y-116710050D01*
X117644876Y-116801642D01*
X117644872Y-116801644D01*
X117639966Y-116803932D01*
X117635533Y-116807035D01*
X117635526Y-116807040D01*
X117457996Y-116931347D01*
X117457991Y-116931350D01*
X117453561Y-116934453D01*
X117449737Y-116938276D01*
X117449731Y-116938282D01*
X117296482Y-117091531D01*
X117296476Y-117091537D01*
X117292653Y-117095361D01*
X117289550Y-117099791D01*
X117289547Y-117099796D01*
X117165240Y-117277326D01*
X117165235Y-117277333D01*
X117162132Y-117281766D01*
X117159848Y-117286663D01*
X117159841Y-117286676D01*
X117135082Y-117339774D01*
X117089325Y-117391950D01*
X117022700Y-117411369D01*
X116956075Y-117391950D01*
X116910318Y-117339774D01*
X116885558Y-117286676D01*
X116885555Y-117286672D01*
X116883268Y-117281766D01*
X116752747Y-117095361D01*
X116591839Y-116934453D01*
X116521309Y-116885068D01*
X116409873Y-116807040D01*
X116409871Y-116807039D01*
X116405434Y-116803932D01*
X116261676Y-116736896D01*
X116204105Y-116710050D01*
X116204103Y-116710049D01*
X116199196Y-116707761D01*
X116193971Y-116706361D01*
X116193963Y-116706358D01*
X115984616Y-116650264D01*
X115984607Y-116650262D01*
X115979392Y-116648865D01*
X115974004Y-116648393D01*
X115974001Y-116648393D01*
X115758095Y-116629504D01*
X115752700Y-116629032D01*
X115747305Y-116629504D01*
X115531398Y-116648393D01*
X115531393Y-116648393D01*
X115526008Y-116648865D01*
X115520794Y-116650262D01*
X115520783Y-116650264D01*
X115311436Y-116706358D01*
X115311424Y-116706362D01*
X115306204Y-116707761D01*
X115301299Y-116710047D01*
X115301294Y-116710050D01*
X115104876Y-116801642D01*
X115104872Y-116801644D01*
X115099966Y-116803932D01*
X115095533Y-116807035D01*
X115095526Y-116807040D01*
X114917996Y-116931347D01*
X114917991Y-116931350D01*
X114913561Y-116934453D01*
X114909737Y-116938276D01*
X114909731Y-116938282D01*
X114756482Y-117091531D01*
X114756476Y-117091537D01*
X114752653Y-117095361D01*
X114749550Y-117099791D01*
X114749547Y-117099796D01*
X114625240Y-117277326D01*
X114625235Y-117277333D01*
X114622132Y-117281766D01*
X114619848Y-117286663D01*
X114619841Y-117286676D01*
X114595082Y-117339774D01*
X114549325Y-117391950D01*
X114482700Y-117411369D01*
X114416075Y-117391950D01*
X114370318Y-117339774D01*
X114345558Y-117286676D01*
X114345555Y-117286672D01*
X114343268Y-117281766D01*
X114212747Y-117095361D01*
X114051839Y-116934453D01*
X113981309Y-116885068D01*
X113869873Y-116807040D01*
X113869871Y-116807039D01*
X113865434Y-116803932D01*
X113721676Y-116736896D01*
X113664105Y-116710050D01*
X113664103Y-116710049D01*
X113659196Y-116707761D01*
X113653971Y-116706361D01*
X113653963Y-116706358D01*
X113444616Y-116650264D01*
X113444607Y-116650262D01*
X113439392Y-116648865D01*
X113434004Y-116648393D01*
X113434001Y-116648393D01*
X113218095Y-116629504D01*
X113212700Y-116629032D01*
X113207305Y-116629504D01*
X112991398Y-116648393D01*
X112991393Y-116648393D01*
X112986008Y-116648865D01*
X112980794Y-116650262D01*
X112980783Y-116650264D01*
X112771436Y-116706358D01*
X112771424Y-116706362D01*
X112766204Y-116707761D01*
X112761299Y-116710047D01*
X112761294Y-116710050D01*
X112564876Y-116801642D01*
X112564872Y-116801644D01*
X112559966Y-116803932D01*
X112555533Y-116807035D01*
X112555526Y-116807040D01*
X112377996Y-116931347D01*
X112377991Y-116931350D01*
X112373561Y-116934453D01*
X112369737Y-116938276D01*
X112369731Y-116938282D01*
X112216482Y-117091531D01*
X112216476Y-117091537D01*
X112212653Y-117095361D01*
X112209550Y-117099791D01*
X112209547Y-117099796D01*
X112085240Y-117277326D01*
X112085235Y-117277333D01*
X112082132Y-117281766D01*
X112079848Y-117286663D01*
X112079841Y-117286676D01*
X112055082Y-117339774D01*
X112009325Y-117391950D01*
X111942700Y-117411369D01*
X111876075Y-117391950D01*
X111830318Y-117339774D01*
X111805558Y-117286676D01*
X111805555Y-117286672D01*
X111803268Y-117281766D01*
X111672747Y-117095361D01*
X111511839Y-116934453D01*
X111441309Y-116885068D01*
X111329873Y-116807040D01*
X111329871Y-116807039D01*
X111325434Y-116803932D01*
X111181676Y-116736896D01*
X111124105Y-116710050D01*
X111124103Y-116710049D01*
X111119196Y-116707761D01*
X111113971Y-116706361D01*
X111113963Y-116706358D01*
X110904616Y-116650264D01*
X110904607Y-116650262D01*
X110899392Y-116648865D01*
X110894004Y-116648393D01*
X110894001Y-116648393D01*
X110678095Y-116629504D01*
X110672700Y-116629032D01*
X110667305Y-116629504D01*
X110451398Y-116648393D01*
X110451393Y-116648393D01*
X110446008Y-116648865D01*
X110440794Y-116650262D01*
X110440783Y-116650264D01*
X110231436Y-116706358D01*
X110231424Y-116706362D01*
X110226204Y-116707761D01*
X110221299Y-116710047D01*
X110221294Y-116710050D01*
X110024876Y-116801642D01*
X110024872Y-116801644D01*
X110019966Y-116803932D01*
X110015533Y-116807035D01*
X110015526Y-116807040D01*
X109837996Y-116931347D01*
X109837991Y-116931350D01*
X109833561Y-116934453D01*
X109829737Y-116938276D01*
X109829731Y-116938282D01*
X109676482Y-117091531D01*
X109676476Y-117091537D01*
X109672653Y-117095361D01*
X109669550Y-117099791D01*
X109669547Y-117099796D01*
X109545240Y-117277326D01*
X109545235Y-117277333D01*
X109542132Y-117281766D01*
X109539848Y-117286663D01*
X109539841Y-117286676D01*
X109515082Y-117339774D01*
X109469325Y-117391950D01*
X109402700Y-117411369D01*
X109336075Y-117391950D01*
X109290318Y-117339774D01*
X109265558Y-117286676D01*
X109265555Y-117286672D01*
X109263268Y-117281766D01*
X109132747Y-117095361D01*
X108971839Y-116934453D01*
X108901309Y-116885068D01*
X108789873Y-116807040D01*
X108789871Y-116807039D01*
X108785434Y-116803932D01*
X108641676Y-116736896D01*
X108584105Y-116710050D01*
X108584103Y-116710049D01*
X108579196Y-116707761D01*
X108573971Y-116706361D01*
X108573963Y-116706358D01*
X108364616Y-116650264D01*
X108364607Y-116650262D01*
X108359392Y-116648865D01*
X108354004Y-116648393D01*
X108354001Y-116648393D01*
X108138095Y-116629504D01*
X108132700Y-116629032D01*
X108127305Y-116629504D01*
X107911398Y-116648393D01*
X107911393Y-116648393D01*
X107906008Y-116648865D01*
X107900794Y-116650262D01*
X107900783Y-116650264D01*
X107691436Y-116706358D01*
X107691424Y-116706362D01*
X107686204Y-116707761D01*
X107681299Y-116710047D01*
X107681294Y-116710050D01*
X107484876Y-116801642D01*
X107484872Y-116801644D01*
X107479966Y-116803932D01*
X107475533Y-116807035D01*
X107475526Y-116807040D01*
X107297996Y-116931347D01*
X107297991Y-116931350D01*
X107293561Y-116934453D01*
X107289737Y-116938276D01*
X107289731Y-116938282D01*
X107136482Y-117091531D01*
X107136476Y-117091537D01*
X107132653Y-117095361D01*
X107129550Y-117099791D01*
X107129547Y-117099796D01*
X107005240Y-117277326D01*
X107005235Y-117277333D01*
X107002132Y-117281766D01*
X106999729Y-117286919D01*
X106974806Y-117340366D01*
X106929048Y-117392541D01*
X106862423Y-117411960D01*
X106795798Y-117392540D01*
X106750042Y-117340364D01*
X106725122Y-117286923D01*
X106719732Y-117277587D01*
X106595467Y-117100118D01*
X106588530Y-117091852D01*
X106435347Y-116938669D01*
X106427081Y-116931732D01*
X106249612Y-116807467D01*
X106240280Y-116802079D01*
X106043934Y-116710522D01*
X106033792Y-116706830D01*
X105856480Y-116659320D01*
X105845251Y-116658952D01*
X105842700Y-116669895D01*
X105842700Y-119199105D01*
X105342700Y-119199105D01*
X105342700Y-118200826D01*
X105339249Y-118187950D01*
X105326374Y-118184500D01*
X104328095Y-118184500D01*
X104317152Y-118187051D01*
X101031220Y-118187051D01*
X101031200Y-118065549D01*
X101031464Y-118057461D01*
X101047963Y-117805730D01*
X101050078Y-117789676D01*
X101071507Y-117681948D01*
X104317152Y-117681948D01*
X104328095Y-117684500D01*
X105326374Y-117684500D01*
X105339249Y-117681049D01*
X105342700Y-117668174D01*
X105342700Y-116669895D01*
X105340148Y-116658952D01*
X105328919Y-116659320D01*
X105151607Y-116706830D01*
X105141465Y-116710522D01*
X104945119Y-116802079D01*
X104935787Y-116807467D01*
X104758318Y-116931732D01*
X104750052Y-116938669D01*
X104596869Y-117091852D01*
X104589932Y-117100118D01*
X104465667Y-117277587D01*
X104460279Y-117286919D01*
X104368722Y-117483265D01*
X104365030Y-117493407D01*
X104317520Y-117670719D01*
X104317152Y-117681948D01*
X101071507Y-117681948D01*
X101098498Y-117546254D01*
X101102687Y-117530617D01*
X101182469Y-117295588D01*
X101188666Y-117280628D01*
X101298438Y-117058033D01*
X101306545Y-117043993D01*
X101427716Y-116862647D01*
X101444423Y-116837642D01*
X101454285Y-116824789D01*
X101617930Y-116638188D01*
X101629388Y-116626730D01*
X101815989Y-116463085D01*
X101828842Y-116453223D01*
X102035191Y-116315345D01*
X102049233Y-116307238D01*
X102271828Y-116197466D01*
X102286788Y-116191269D01*
X102521817Y-116111487D01*
X102537454Y-116107298D01*
X102780876Y-116058878D01*
X102796930Y-116056763D01*
X103048630Y-116040266D01*
X103056780Y-116040002D01*
X141401680Y-116064996D01*
G37*
%TD.AperFunction*%
%TD*%
M02*
